<svg xmlns="http://www.w3.org/2000/svg" xmlns:xlink="http://www.w3.org/1999/xlink" width="559" zoomAndPan="magnify" viewBox="0 0 419.25 297.75" height="396" preserveAspectRatio="xMidYMid meet" version="1.0"><defs><clipPath id="1356c39f05"><path d="M 0 72.5625 L 418.5 72.5625 L 418.5 248.707031 L 0 248.707031 Z M 0 72.5625 " clip-rule="nonzero"/></clipPath><clipPath id="b59c2cf28e"><path d="M 0 72.5625 L 382 72.5625 L 382 248.707031 L 0 248.707031 Z M 0 72.5625 " clip-rule="nonzero"/></clipPath><clipPath id="14b47d5acf"><path d="M 232 75 L 418.5 75 L 418.5 246 L 232 246 Z M 232 75 " clip-rule="nonzero"/></clipPath></defs><g clip-path="url(#1356c39f05)"><path fill="#5a9955" d="M 417.863281 244.855469 C 417.445312 245.441406 416.695312 245.863281 416.027344 245.777344 C 413.101562 245.863281 410.257812 245.609375 407.414062 245.109375 C 404.15625 244.4375 401.3125 243.183594 397.886719 243.101562 L 397.214844 243.101562 C 394.207031 243.101562 391.113281 243.265625 388.105469 243.351562 C 386.015625 243.351562 383.839844 243.015625 381.835938 242.515625 C 380.746094 242.261719 379.578125 242.097656 378.492188 242.011719 C 374.894531 241.675781 371.21875 241.929688 367.625 242.011719 C 365.367188 242.011719 363.109375 242.011719 360.851562 241.929688 C 356.589844 241.84375 352.410156 241.59375 348.144531 241.511719 L 346.222656 241.511719 C 344.382812 241.511719 342.460938 241.59375 340.621094 241.761719 C 339.867188 241.84375 339.199219 241.929688 338.449219 242.011719 C 335.355469 242.515625 332.511719 243.601562 329.585938 244.4375 C 323.066406 246.195312 316.378906 245.863281 309.605469 245.863281 L 287.203125 245.863281 C 284.695312 245.863281 282.1875 245.863281 279.679688 245.863281 C 272.15625 245.863281 264.632812 245.863281 257.109375 246.027344 C 252.34375 246.113281 247.492188 246.363281 242.730469 246.699219 C 235.371094 247.199219 228.097656 246.949219 220.742188 247.03125 C 219.992188 247.03125 219.238281 247.03125 218.570312 247.117188 C 215.894531 247.285156 213.21875 247.703125 210.460938 248.039062 C 206.867188 248.457031 203.1875 248.621094 199.59375 248.457031 C 197.085938 248.371094 194.660156 248.289062 192.152344 248.121094 C 187.21875 247.871094 182.203125 247.453125 177.273438 247.285156 C 170.082031 247.03125 162.894531 247.03125 155.703125 246.449219 C 148.515625 245.863281 141.492188 245.277344 134.554688 243.851562 C 131.042969 243.015625 127.53125 242.515625 124.019531 242.347656 C 122.433594 242.261719 120.84375 242.179688 119.253906 242.097656 C 117.332031 241.929688 115.328125 241.761719 113.402344 241.511719 C 98.773438 239.667969 84.480469 236.238281 69.765625 235.988281 C 62.578125 235.902344 55.304688 235.152344 48.199219 235.988281 C 44.769531 236.40625 41.425781 237.160156 37.914062 237.242188 C 34.40625 237.328125 31.144531 237.828125 27.714844 238.246094 C 21.78125 238.917969 16.179688 237.910156 10.246094 237.074219 C 6.902344 236.574219 1.382812 235.820312 0.546875 231.71875 C 0.296875 230.632812 0.796875 229.460938 1.800781 229.042969 C 1.886719 228.707031 2.136719 228.371094 2.386719 228.121094 C 5.648438 224.859375 8.824219 221.425781 12.167969 218.164062 C 15.59375 214.816406 19.273438 211.71875 22.699219 208.375 C 25.960938 205.277344 29.554688 202.347656 32.734375 199.167969 C 35.910156 195.988281 38.835938 192.726562 42.261719 189.878906 C 45.691406 187.035156 49.117188 184.441406 52.628906 181.847656 C 59.484375 176.660156 66.839844 172.222656 74.53125 168.375 C 82.222656 164.859375 90.246094 162.183594 98.441406 160.425781 C 102.703125 159.503906 106.800781 158.332031 110.894531 156.910156 C 114.824219 155.320312 118.585938 153.230469 122.015625 150.71875 C 129.707031 145.445312 135.890625 138.667969 142.828125 132.476562 C 146.257812 129.378906 149.851562 126.453125 153.445312 123.523438 C 156.957031 120.511719 160.300781 117.332031 163.480469 113.816406 C 166.570312 110.554688 170 107.707031 173.761719 105.199219 C 177.523438 102.6875 180.699219 99.675781 184.292969 96.914062 C 187.890625 94.152344 191.902344 92.058594 195.578125 89.550781 C 199.257812 87.039062 203.1875 85.367188 206.949219 83.273438 C 210.375 81.347656 212.882812 78.671875 215.894531 76.160156 C 218.570312 73.816406 221.996094 72.5625 225.507812 72.730469 L 226.007812 72.8125 C 228.351562 73.066406 230.273438 74.152344 232.277344 75.242188 C 233.367188 75.824219 234.367188 76.496094 235.539062 76.996094 C 239.71875 79.007812 243.816406 80.429688 247.492188 83.273438 C 249.25 84.445312 250.835938 85.953125 252.257812 87.542969 C 253.261719 89.046875 254.179688 90.636719 254.851562 92.3125 C 256.605469 95.992188 259.53125 99.339844 262.207031 102.4375 C 264.964844 105.699219 268.140625 108.542969 271.570312 110.972656 C 275.25 113.480469 278.507812 116.660156 282.6875 118.503906 C 286.449219 120.257812 290.128906 121.683594 293.472656 124.277344 C 296.480469 126.871094 299.324219 129.714844 301.914062 132.8125 C 304.589844 135.992188 307.433594 138.835938 310.695312 141.429688 C 314.371094 144.277344 318.050781 146.871094 321.5625 149.882812 C 328.582031 155.90625 336.105469 161.179688 342.960938 167.371094 C 349.816406 173.5625 356.921875 179.503906 363.109375 186.449219 C 366.203125 189.964844 369.460938 193.226562 373.058594 196.238281 C 376.484375 199 379.660156 201.929688 382.671875 205.109375 C 388.691406 211.804688 393.621094 219.25 400.476562 225.109375 C 406.746094 230.464844 413.519531 235.066406 418.199219 241.929688 C 418.699219 242.933594 418.617188 244.105469 417.863281 244.855469 Z M 417.863281 244.855469 " fill-opacity="1" fill-rule="nonzero"/></g><g clip-path="url(#b59c2cf28e)"><path fill="#356732" d="M 193.742188 115.40625 C 193.070312 115.742188 192.402344 116.160156 191.734375 116.578125 C 191.066406 117.078125 190.5625 117.75 189.980469 118.335938 C 188.808594 119.507812 187.636719 120.511719 186.382812 121.597656 C 183.792969 123.941406 181.285156 126.285156 179.527344 129.214844 C 178.609375 130.636719 177.855469 132.140625 177.273438 133.730469 C 176.769531 135.320312 176.601562 136.910156 176.183594 138.5 C 175.433594 142.101562 174.929688 145.699219 174.679688 149.296875 C 174.597656 151.136719 174.347656 152.976562 173.929688 154.820312 C 173.675781 156.15625 173.511719 157.582031 173.34375 158.917969 C 173.09375 162.097656 172.003906 165.195312 170.332031 167.871094 C 169.332031 169.378906 167.992188 170.632812 166.570312 171.722656 C 165.316406 172.726562 164.148438 173.730469 162.976562 174.816406 C 160.300781 177.078125 157.542969 179.167969 154.617188 181.09375 C 153.195312 182.015625 151.859375 183.019531 150.4375 183.855469 C 149.015625 184.523438 147.679688 185.363281 146.425781 186.28125 C 145.085938 187.453125 143.582031 188.457031 142.160156 189.460938 C 140.90625 190.296875 139.738281 191.304688 138.734375 192.390625 C 136.476562 194.484375 134.46875 196.742188 132.632812 199.253906 C 131.710938 200.675781 130.960938 202.179688 130.039062 203.605469 C 129.203125 204.941406 128.535156 206.28125 128.117188 207.789062 C 127.617188 209.460938 126.945312 211.050781 126.277344 212.726562 C 125.777344 214.230469 125.441406 215.738281 125.273438 217.328125 C 124.605469 220.839844 123.601562 224.1875 122.597656 227.621094 C 121.597656 231.050781 120.761719 234.566406 120.007812 237.996094 C 119.757812 239.25 119.589844 240.507812 119.339844 241.761719 C 117.417969 241.59375 115.410156 241.425781 113.488281 241.175781 C 98.859375 239.335938 84.5625 235.902344 69.847656 235.652344 C 68.261719 235.652344 66.589844 235.570312 65 235.484375 C 59.398438 235.234375 53.800781 234.984375 48.28125 235.570312 C 44.855469 235.988281 41.511719 236.742188 38 236.824219 C 34.488281 236.90625 31.226562 237.410156 27.800781 237.828125 C 21.863281 238.496094 16.265625 237.492188 10.328125 236.65625 C 9.828125 236.574219 9.324219 236.488281 8.738281 236.40625 C 7.152344 236.15625 5.5625 235.738281 4.140625 235.152344 C 3.304688 234.816406 2.46875 234.230469 1.800781 233.5625 C 1.214844 232.976562 0.796875 232.222656 0.632812 231.386719 C 0.464844 231.300781 0.464844 231.050781 0.464844 230.800781 C 0.546875 229.960938 1.050781 229.210938 1.800781 228.875 C 1.886719 228.625 2.050781 228.371094 2.136719 228.207031 C 2.136719 228.121094 2.21875 228.121094 2.21875 228.121094 L 2.304688 228.039062 C 5.5625 224.773438 8.738281 221.34375 12.082031 218.082031 C 15.511719 214.734375 19.191406 211.636719 22.617188 208.289062 C 25.878906 205.195312 29.472656 202.265625 32.648438 199.085938 C 35.824219 195.90625 38.75 192.640625 42.179688 189.796875 C 45.605469 186.953125 49.035156 184.359375 52.546875 181.761719 C 59.398438 176.660156 66.757812 172.222656 74.363281 168.457031 C 82.054688 164.945312 90.082031 162.265625 98.273438 160.507812 C 102.535156 159.589844 106.632812 158.417969 110.730469 156.996094 C 114.65625 155.40625 118.417969 153.3125 121.847656 150.800781 C 129.539062 145.53125 135.722656 138.753906 142.664062 132.558594 C 146.089844 129.464844 149.683594 126.535156 153.28125 123.605469 C 156.789062 120.59375 160.132812 117.414062 163.3125 113.898438 L 163.5625 113.648438 C 166.570312 110.46875 169.914062 107.707031 173.59375 105.28125 C 177.355469 102.769531 180.53125 99.757812 184.128906 96.996094 C 187.722656 94.234375 191.734375 92.144531 195.414062 89.632812 C 199.089844 87.121094 203.019531 85.449219 206.78125 83.355469 C 210.210938 81.433594 212.71875 78.753906 215.726562 76.246094 C 218.402344 73.902344 221.828125 72.644531 225.339844 72.8125 L 225.84375 72.898438 C 225.507812 73.652344 225.171875 74.320312 224.839844 75.074219 C 223.25 78.253906 221.160156 81.015625 219.40625 84.109375 C 218.988281 84.863281 217.734375 86.453125 218.066406 87.375 C 218.234375 87.875 218.988281 88.546875 219.320312 88.964844 C 219.738281 89.550781 220.074219 90.21875 220.242188 90.886719 C 221.078125 93.984375 219.40625 96.828125 217.148438 98.921875 C 214.890625 101.011719 212.464844 102.9375 209.875 104.695312 C 208.453125 105.617188 207.199219 106.703125 205.863281 107.707031 C 204.609375 108.460938 203.269531 109.214844 201.933594 109.882812 C 200.429688 110.71875 199.089844 111.808594 197.667969 112.726562 C 196.25 113.648438 195.160156 114.652344 193.742188 115.40625 Z M 280.011719 219.503906 C 279.09375 216.492188 277.839844 213.5625 276.335938 210.800781 C 275.582031 209.460938 274.664062 208.121094 273.742188 206.867188 C 272.824219 205.695312 271.738281 204.609375 270.816406 203.4375 C 269.898438 202.347656 269.144531 201.09375 268.644531 199.671875 C 268.476562 199 268.226562 198.332031 268.140625 197.664062 C 267.976562 196.910156 267.640625 196.15625 267.472656 195.402344 C 267.304688 193.5625 267.304688 191.804688 267.472656 189.964844 C 267.558594 188.207031 268.140625 186.367188 268.394531 184.609375 C 268.558594 182.933594 268.894531 181.179688 269.394531 179.589844 C 270.066406 177.746094 270.566406 175.824219 270.734375 173.8125 C 270.902344 171.972656 270.734375 170.046875 270.734375 168.207031 C 270.816406 167.203125 270.816406 166.28125 270.734375 165.277344 C 270.566406 164.441406 270.484375 163.605469 270.484375 162.851562 C 270.648438 162.183594 270.816406 161.597656 271.066406 161.011719 C 271.234375 160.257812 271.402344 159.589844 271.652344 158.835938 C 272.070312 157.582031 272.824219 156.410156 273.742188 155.488281 C 274.664062 154.566406 274.664062 152.976562 273.742188 152.058594 C 273.578125 151.890625 273.410156 151.804688 273.242188 151.722656 C 272.65625 150.800781 271.570312 150.382812 270.566406 150.636719 C 267.890625 150.96875 265.382812 152.058594 263.125 153.5625 C 261.121094 155.152344 259.199219 156.910156 257.441406 158.835938 C 256.605469 159.757812 255.769531 160.84375 254.851562 161.765625 C 253.761719 162.769531 252.761719 163.773438 251.839844 164.859375 C 250.167969 166.953125 248.664062 169.210938 247.328125 171.554688 C 246.824219 172.640625 246.15625 173.5625 245.402344 174.484375 C 244.566406 175.402344 243.816406 176.40625 242.980469 177.414062 C 242.3125 178.25 241.558594 179.085938 240.722656 179.753906 C 239.636719 180.507812 238.550781 181.179688 237.460938 182.015625 C 233.449219 185.195312 230.605469 189.546875 228.183594 193.980469 C 225.589844 198.917969 222.917969 203.769531 220.742188 208.960938 C 219.65625 211.46875 218.652344 214.0625 217.816406 216.65625 C 217.484375 217.746094 217.066406 218.832031 216.5625 219.835938 C 215.894531 221.007812 215.058594 222.097656 214.390625 223.183594 C 214.054688 223.9375 213.554688 224.605469 212.96875 225.191406 C 212.046875 225.863281 211.128906 226.617188 210.210938 227.367188 C 209.375 228.121094 208.539062 228.957031 207.703125 229.710938 C 207.199219 230.214844 206.867188 230.800781 206.363281 231.21875 C 205.945312 231.550781 205.445312 231.886719 205.027344 232.136719 C 204.191406 232.890625 203.355469 233.726562 202.601562 234.648438 C 201.683594 235.484375 200.679688 236.320312 199.761719 237.242188 C 197.835938 239 196.082031 241.007812 194.492188 243.101562 C 193.488281 244.691406 192.652344 246.449219 192.152344 248.203125 C 194.578125 248.371094 197.085938 248.457031 199.59375 248.539062 C 203.1875 248.707031 206.867188 248.539062 210.460938 248.121094 C 213.886719 247.535156 217.316406 247.199219 220.742188 247.117188 C 228.097656 247.03125 235.371094 247.285156 242.730469 246.78125 C 255.019531 245.945312 267.390625 245.945312 279.679688 246.027344 C 279.847656 245.277344 279.929688 244.4375 280.097656 243.6875 C 280.515625 242.011719 281.015625 240.421875 281.519531 238.75 C 281.9375 237.328125 282.1875 235.820312 282.269531 234.3125 C 282.355469 232.554688 282.355469 230.800781 282.269531 229.042969 C 282.019531 225.609375 281.183594 222.515625 280.011719 219.503906 Z M 221.996094 143.1875 C 221.328125 144.109375 220.660156 145.027344 219.90625 145.867188 C 219.15625 146.703125 218.234375 147.457031 217.480469 148.292969 C 216.8125 149.210938 216.226562 150.300781 215.808594 151.386719 C 215.308594 152.308594 214.722656 153.144531 213.972656 153.898438 C 211.796875 156.15625 215.140625 159.421875 217.398438 157.328125 C 219.488281 155.152344 222.164062 153.5625 224.671875 151.890625 C 227.261719 150.214844 230.023438 148.878906 232.949219 147.789062 C 236.039062 146.617188 238.96875 145.195312 241.808594 143.523438 C 243.984375 142.183594 246.574219 140.34375 247.828125 138 C 248.496094 136.578125 248.496094 134.988281 247.910156 133.648438 C 247.328125 132.140625 246.824219 130.71875 246.40625 129.128906 C 245.988281 127.789062 245.820312 126.367188 245.738281 124.945312 C 245.738281 123.355469 245.820312 121.765625 245.820312 120.175781 C 245.820312 118.753906 245.988281 117.414062 246.324219 116.074219 C 246.65625 114.570312 247.410156 113.148438 247.910156 111.640625 C 248.414062 110.300781 248.746094 108.878906 248.832031 107.457031 C 248.746094 106.035156 248.328125 104.695312 247.660156 103.523438 C 246.40625 101.179688 244.402344 98.417969 242.144531 96.996094 C 240.972656 96.242188 239.71875 95.824219 238.632812 94.988281 C 237.460938 93.902344 235.875 93.316406 234.285156 93.148438 C 231.859375 93.0625 231.359375 95.910156 232.613281 97.246094 C 233.03125 98.085938 233.449219 99.003906 233.785156 99.925781 C 234.035156 101.011719 234.285156 102.183594 234.367188 103.355469 C 234.453125 103.773438 234.535156 104.191406 234.703125 104.613281 C 234.703125 104.777344 234.785156 104.777344 234.785156 104.777344 C 234.703125 104.863281 234.703125 105.03125 234.703125 105.113281 C 234.367188 106.117188 234.285156 107.121094 233.949219 108.125 C 233.28125 110.132812 232.195312 112.058594 231.441406 114.066406 C 230.605469 115.742188 229.769531 117.332031 228.769531 118.835938 C 227.765625 120.761719 227.179688 122.855469 227.261719 125.027344 C 227.347656 127.289062 227.261719 129.464844 226.929688 131.640625 C 226.761719 132.644531 226.425781 133.730469 226.175781 134.734375 C 226.007812 135.738281 225.675781 136.746094 225.257812 137.75 C 224.253906 139.671875 223.167969 141.429688 221.996094 143.1875 Z M 380.746094 241.84375 C 377.820312 239.753906 374.5625 238.164062 371.550781 236.238281 C 370.046875 235.402344 368.625 234.480469 367.289062 233.476562 C 365.949219 232.390625 364.695312 231.300781 363.359375 230.214844 C 360.515625 227.871094 359.097656 224.859375 357.507812 221.679688 C 356.671875 220.003906 355.753906 218.414062 354.832031 216.742188 C 353.996094 215.234375 353.328125 213.5625 352.324219 212.140625 C 351.320312 210.714844 349.984375 209.796875 348.980469 208.457031 C 347.894531 206.949219 346.554688 205.695312 345.050781 204.691406 C 344.550781 204.355469 344.046875 204.105469 343.546875 203.855469 C 343.378906 203.769531 342.792969 203.351562 342.710938 203.351562 C 342.210938 202.933594 341.707031 202.515625 341.207031 202.097656 C 340.621094 201.59375 339.953125 201.175781 339.285156 200.84375 C 338.699219 200.589844 338.113281 200.425781 337.527344 200.089844 C 337.109375 199.753906 336.777344 199.417969 336.359375 199.167969 C 335.355469 198.414062 335.019531 197.328125 334.269531 196.238281 C 333.347656 194.984375 332.09375 193.898438 330.757812 193.058594 C 329.585938 192.308594 328.832031 191.136719 327.578125 190.464844 C 326.324219 189.796875 325.070312 189.210938 323.816406 188.542969 C 321.144531 186.953125 318.21875 185.613281 315.207031 184.609375 C 313.785156 184.191406 312.03125 185.363281 312.113281 186.953125 C 312.199219 187.789062 312.449219 188.542969 312.949219 189.210938 C 313.117188 189.546875 313.367188 189.796875 313.621094 190.132812 L 314.121094 190.800781 C 314.789062 191.722656 315.207031 192.640625 315.792969 193.5625 C 316.378906 194.484375 317.046875 195.320312 317.546875 196.324219 C 318.636719 198.25 318.96875 200.757812 319.472656 202.851562 C 319.890625 205.027344 320.890625 207.117188 322.3125 208.792969 C 323.734375 210.464844 325.488281 211.804688 326.996094 213.394531 C 328.5 214.984375 330.089844 216.910156 331.59375 218.664062 C 332.261719 219.503906 333.015625 220.253906 333.765625 221.007812 C 334.6875 221.679688 335.523438 222.515625 336.273438 223.351562 C 336.941406 224.1875 337.527344 224.941406 338.195312 225.695312 C 338.867188 226.449219 338.699219 226.78125 338.613281 227.621094 C 338.53125 229.878906 337.777344 231.886719 338.53125 234.148438 C 339.285156 236.40625 339.449219 238.832031 340.035156 241.175781 C 340.035156 241.34375 340.121094 241.511719 340.121094 241.675781 C 342.628906 241.511719 345.136719 241.425781 347.644531 241.511719 C 354.164062 241.59375 360.601562 242.097656 367.121094 242.011719 C 370.714844 242.011719 374.476562 241.761719 377.988281 242.011719 C 379.074219 242.097656 380.246094 242.347656 381.332031 242.515625 C 381.417969 242.347656 381.082031 242.097656 380.746094 241.84375 Z M 380.746094 241.84375 " fill-opacity="1" fill-rule="nonzero"/></g><path fill="#274f26" d="M 163.480469 113.816406 L 163.730469 113.566406 C 163.5625 114.484375 163.144531 115.40625 162.558594 116.160156 C 162.140625 116.746094 161.554688 117.164062 161.222656 117.75 C 160.886719 118.335938 160.386719 119.171875 159.882812 119.839844 C 158.628906 121.265625 157.292969 122.601562 155.789062 123.773438 C 153.027344 126.285156 150.605469 129.046875 148.515625 132.058594 C 146.257812 135.320312 144 138.835938 141.492188 141.847656 C 139.234375 144.609375 136.558594 147.121094 134.636719 150.214844 C 133.632812 151.722656 132.464844 153.144531 131.210938 154.484375 C 130.125 155.824219 128.953125 157.160156 127.699219 158.332031 C 124.773438 160.925781 121.261719 162.851562 117.75 164.609375 C 115.910156 165.53125 114.074219 166.449219 112.316406 167.371094 C 110.5625 168.207031 108.972656 169.128906 107.386719 170.214844 C 105.964844 171.21875 104.625 172.308594 103.457031 173.5625 C 102.203125 174.902344 101.199219 176.40625 100.027344 177.832031 C 98.859375 179.167969 97.605469 180.425781 96.265625 181.597656 C 95.597656 182.265625 94.929688 182.933594 94.425781 183.773438 C 93.84375 184.441406 93.171875 185.109375 92.421875 185.695312 C 91 186.953125 89.664062 188.375 88.242188 189.628906 C 86.820312 190.882812 85.316406 192.140625 83.976562 193.480469 C 81.386719 196.15625 78.375 198.582031 75.953125 201.429688 C 73.695312 204.273438 71.6875 207.371094 70.015625 210.632812 C 69.097656 212.054688 68.34375 213.644531 67.84375 215.234375 C 67.339844 216.992188 67.089844 218.832031 66.503906 220.675781 C 66.171875 221.511719 66.003906 222.429688 65.921875 223.351562 C 65.835938 224.273438 65.753906 225.277344 65.585938 226.195312 C 65.167969 228.207031 65 230.128906 65 232.136719 C 65 233.308594 65 234.480469 65 235.570312 C 59.398438 235.316406 53.800781 235.066406 48.28125 235.652344 C 44.855469 236.070312 41.511719 236.824219 38 236.90625 C 34.488281 236.992188 31.226562 237.492188 27.800781 237.910156 C 21.863281 238.582031 16.265625 237.578125 10.328125 236.742188 C 9.828125 236.65625 9.324219 236.574219 8.738281 236.488281 C 7.152344 236.238281 5.648438 235.820312 4.140625 235.234375 C 3.304688 234.898438 2.46875 234.3125 1.800781 233.644531 C 1.214844 233.058594 0.796875 232.304688 0.632812 231.46875 C 0.464844 231.386719 0.464844 231.132812 0.464844 230.882812 C 0.546875 230.046875 1.050781 229.292969 1.800781 228.957031 C 1.886719 228.707031 2.050781 228.457031 2.136719 228.289062 C 2.136719 228.289062 2.21875 228.207031 2.21875 228.207031 L 2.304688 228.121094 C 5.5625 224.859375 8.738281 221.425781 12.082031 218.164062 C 15.511719 214.816406 19.191406 211.71875 22.617188 208.375 C 25.878906 205.277344 29.472656 202.347656 32.648438 199.167969 C 35.824219 195.988281 38.75 192.726562 42.179688 189.878906 C 45.605469 187.035156 49.035156 184.441406 52.546875 181.847656 C 59.398438 176.742188 66.757812 172.222656 74.363281 168.457031 C 82.054688 164.945312 90.082031 162.265625 98.273438 160.507812 C 102.535156 159.589844 106.632812 158.417969 110.730469 156.996094 C 114.65625 155.40625 118.417969 153.3125 121.847656 150.800781 C 129.539062 145.53125 135.722656 138.753906 142.664062 132.558594 C 146.089844 129.464844 149.683594 126.535156 153.28125 123.605469 C 156.957031 120.511719 160.386719 117.246094 163.480469 113.816406 Z M 261.035156 208.039062 C 259.867188 205.695312 258.863281 203.4375 257.527344 201.175781 C 255.101562 197.078125 255.183594 191.890625 257.859375 187.871094 C 258.527344 186.699219 258.109375 185.195312 256.941406 184.523438 C 256.605469 184.359375 256.1875 184.191406 255.769531 184.191406 C 254.179688 184.273438 253.597656 185.195312 252.761719 186.367188 C 251.925781 187.285156 251.089844 188.125 250.167969 188.960938 C 248.078125 191.050781 246.238281 193.3125 244.566406 195.738281 C 242.980469 198.164062 241.640625 200.757812 240.640625 203.519531 C 239.71875 206.03125 239.636719 208.707031 238.882812 211.300781 C 237.964844 213.894531 236.875 216.40625 235.539062 218.832031 C 234.953125 220.089844 234.203125 221.261719 233.699219 222.597656 C 233.53125 223.101562 233.28125 223.601562 233.03125 224.105469 C 232.613281 224.773438 232.027344 225.277344 231.609375 225.945312 C 231.023438 226.949219 230.273438 227.871094 229.519531 228.707031 C 228.433594 229.878906 227.347656 231.132812 226.34375 232.304688 C 224.671875 234.480469 223.082031 236.90625 221.828125 239.335938 C 220.410156 241.675781 219.320312 244.273438 218.652344 246.949219 C 219.40625 246.867188 220.074219 246.867188 220.828125 246.867188 C 228.183594 246.78125 235.457031 247.03125 242.8125 246.53125 C 247.578125 246.195312 252.425781 246.027344 257.191406 245.863281 L 257.273438 245.777344 C 259.699219 241.257812 261.203125 236.320312 262.457031 231.300781 C 263.878906 226.113281 264.296875 220.675781 263.628906 215.402344 C 263.042969 212.890625 262.207031 210.382812 261.035156 208.039062 Z M 359.261719 239.167969 C 358.425781 237.410156 357.507812 235.652344 356.753906 233.894531 C 356.003906 232.136719 355.5 230.214844 354.75 228.371094 C 353.996094 226.617188 352.992188 224.859375 351.824219 223.351562 C 351.238281 222.515625 350.570312 221.761719 349.902344 221.09375 C 349.566406 220.839844 349.230469 220.589844 348.898438 220.339844 C 348.898438 220.339844 348.8125 220.253906 348.8125 220.253906 C 348.480469 219.585938 347.976562 219.085938 347.390625 218.75 C 345.71875 217.914062 342.960938 219.417969 343.882812 221.511719 C 344.046875 221.84375 344.214844 222.179688 344.382812 222.429688 C 344.464844 222.429688 344.632812 222.515625 344.632812 222.683594 C 344.632812 222.597656 344.632812 222.683594 344.632812 222.765625 L 344.550781 222.683594 L 344.632812 222.851562 C 344.71875 223.183594 344.800781 223.4375 344.882812 223.769531 C 345.21875 225.027344 345.554688 226.195312 345.972656 227.367188 C 346.722656 229.628906 347.140625 231.886719 347.390625 234.230469 C 347.476562 235.066406 347.476562 235.902344 347.308594 236.742188 C 347.226562 237.328125 347.226562 237.910156 347.058594 238.496094 C 346.890625 238.917969 346.722656 239.417969 346.472656 239.835938 C 346.222656 240.421875 346.136719 241.007812 346.136719 241.59375 L 348.0625 241.59375 C 352.324219 241.675781 356.503906 241.929688 360.769531 242.011719 C 360.097656 241.007812 359.679688 240.003906 359.261719 239.167969 Z M 235.539062 135.15625 C 236.792969 135.488281 238.132812 134.734375 238.550781 133.480469 C 238.800781 132.308594 238.882812 131.136719 239.050781 129.964844 C 239.21875 128.792969 239.71875 127.539062 239.96875 126.285156 C 240.222656 125.027344 239.96875 123.773438 240.222656 122.433594 C 240.472656 121.097656 240.472656 119.757812 240.472656 118.335938 C 240.386719 117.917969 240.386719 117.414062 240.472656 116.996094 C 240.640625 116.492188 240.890625 116.074219 241.140625 115.65625 C 241.558594 114.570312 241.808594 113.480469 241.976562 112.308594 C 242.226562 111.136719 242.730469 110.132812 242.894531 108.964844 C 243.0625 107.792969 242.394531 106.621094 242.3125 105.363281 C 242.144531 102.269531 237.296875 102.269531 237.460938 105.363281 C 237.460938 106.035156 237.628906 106.621094 237.714844 107.289062 C 237.796875 107.539062 237.796875 107.707031 237.878906 107.957031 C 237.878906 108.042969 238.046875 108.628906 238.046875 108.460938 C 238.046875 109.214844 237.296875 110.71875 237.128906 111.722656 C 236.960938 112.5625 236.792969 113.398438 236.375 114.152344 C 235.707031 115.324219 235.457031 116.660156 235.457031 117.917969 C 235.539062 119.089844 235.539062 120.175781 235.371094 121.347656 C 235.203125 122.015625 235.121094 122.769531 235.121094 123.4375 C 235.203125 123.941406 235.203125 124.445312 235.203125 124.945312 C 235.121094 126.199219 234.535156 127.457031 234.285156 128.628906 C 234.035156 129.800781 233.949219 130.96875 233.785156 132.140625 C 233.53125 133.480469 234.285156 134.734375 235.539062 135.15625 Z M 235.539062 135.15625 " fill-opacity="1" fill-rule="nonzero"/><g clip-path="url(#14b47d5acf)"><path fill="#93c68d" d="M 417.863281 244.855469 C 417.445312 245.441406 416.695312 245.863281 416.027344 245.777344 C 413.101562 245.863281 410.257812 245.609375 407.414062 245.109375 C 404.15625 244.4375 401.3125 243.183594 397.886719 243.101562 L 397.214844 243.101562 C 396.714844 242.429688 396.128906 241.761719 395.542969 241.09375 C 393.957031 239.082031 392.535156 236.90625 391.199219 234.730469 C 389.859375 232.722656 388.355469 230.882812 386.601562 229.125 C 383.089844 225.445312 379.746094 221.511719 376.734375 217.410156 C 375.148438 215.320312 373.390625 213.394531 371.71875 211.46875 C 370.800781 210.464844 369.964844 209.460938 369.296875 208.289062 C 368.710938 207.371094 368.292969 206.449219 367.789062 205.527344 C 366.535156 203.605469 364.949219 201.847656 363.191406 200.425781 C 362.1875 199.503906 361.269531 198.582031 360.265625 197.746094 C 359.347656 197.078125 358.511719 196.324219 357.675781 195.488281 C 356.085938 193.8125 354.832031 191.804688 353.160156 190.296875 C 351.488281 188.792969 349.484375 187.117188 347.726562 185.445312 C 345.972656 183.773438 343.882812 182.265625 342.042969 180.59375 C 340.203125 178.917969 338.449219 177.246094 336.523438 175.738281 C 334.601562 174.234375 332.511719 172.976562 330.339844 171.890625 C 328.164062 170.800781 326.160156 169.546875 324.152344 168.125 C 323.316406 167.371094 322.398438 166.703125 321.394531 166.117188 C 320.390625 165.613281 319.472656 165.195312 318.550781 164.609375 C 316.378906 163.269531 314.203125 162.097656 312.199219 160.59375 C 310.191406 159.253906 308.351562 157.664062 306.679688 155.90625 C 305.007812 154.066406 303.585938 151.972656 302 150.050781 C 298.90625 146.285156 296.148438 142.183594 292.554688 138.921875 C 288.707031 135.40625 284.191406 132.644531 279.929688 129.714844 C 277.839844 128.292969 275.917969 126.703125 273.996094 125.195312 C 271.988281 123.773438 270.066406 122.269531 268.226562 120.59375 C 266.46875 118.921875 264.882812 117.078125 263.210938 115.238281 C 261.539062 113.398438 259.617188 111.722656 258.027344 109.882812 C 254.765625 106.203125 251.671875 102.4375 249.582031 98 C 249 96.828125 248.664062 95.65625 248.246094 94.488281 C 247.828125 93.316406 247.242188 92.3125 246.742188 91.308594 C 245.820312 89.464844 245.152344 87.542969 243.730469 85.953125 C 240.554688 82.519531 236.625 80.09375 233.617188 76.496094 C 233.28125 76.078125 232.949219 75.660156 232.613281 75.324219 C 233.699219 75.910156 234.703125 76.578125 235.875 77.082031 C 240.054688 79.089844 244.148438 80.511719 247.828125 83.355469 C 249.582031 84.527344 251.171875 86.035156 252.59375 87.625 C 253.597656 89.132812 254.515625 90.722656 255.183594 92.394531 C 256.941406 96.078125 259.867188 99.421875 262.542969 102.519531 C 265.300781 105.78125 268.476562 108.628906 271.902344 111.054688 C 275.582031 113.566406 278.84375 116.746094 283.023438 118.585938 C 286.785156 120.34375 290.460938 121.765625 293.808594 124.359375 C 296.816406 126.953125 299.660156 129.882812 302.25 132.894531 C 304.925781 136.074219 307.765625 138.921875 311.027344 141.515625 C 314.707031 144.359375 318.382812 146.953125 321.894531 149.964844 C 328.917969 155.992188 336.441406 161.261719 343.296875 167.453125 C 350.152344 173.648438 357.257812 179.585938 363.441406 186.535156 C 366.535156 190.046875 369.796875 193.3125 373.390625 196.324219 C 376.820312 199.085938 379.996094 202.015625 383.003906 205.195312 C 389.023438 211.886719 393.957031 219.335938 400.8125 225.191406 C 407.082031 230.546875 413.851562 235.152344 418.535156 242.011719 C 418.699219 242.933594 418.617188 244.105469 417.863281 244.855469 Z M 417.863281 244.855469 " fill-opacity="1" fill-rule="nonzero"/></g></svg>