<svg xmlns="http://www.w3.org/2000/svg" xmlns:xlink="http://www.w3.org/1999/xlink" width="500" zoomAndPan="magnify" viewBox="0 0 375 374.999991" height="500" preserveAspectRatio="xMidYMid meet" version="1.0"><defs><clipPath id="1fa6b307b0"><path d="M 12 14.558594 L 365 14.558594 L 365 360.308594 L 12 360.308594 Z M 12 14.558594 " clip-rule="nonzero"/></clipPath></defs><path fill="#ffdcca" d="M 267.570312 145.125 C 264.289062 155.160156 254.378906 162.449219 242.125 163.988281 C 238.105469 178.703125 232.414062 195.15625 222.839844 207.0625 C 223.578125 212.347656 223.242188 220.375 224.378906 226.195312 C 226.054688 234.757812 229.066406 241.109375 228.53125 247.664062 C 228.128906 252.613281 220.898438 259.90625 217.953125 263.519531 C 204.292969 280.039062 183.066406 291.609375 164.519531 274.890625 C 161.570312 272.28125 158.894531 269.402344 156.417969 266.328125 C 153.136719 262.3125 148.648438 256.628906 147.777344 251.277344 C 147.308594 248.199219 150.121094 243.917969 151.058594 241.109375 C 153.203125 234.890625 154.808594 228.601562 155.480469 222.046875 C 156.015625 216.761719 156.015625 211.480469 155.679688 206.195312 C 154.40625 204.855469 153.136719 203.519531 151.996094 202.179688 C 144.097656 192.75 138.738281 182.382812 135.457031 171.546875 C 117.578125 166.0625 102.648438 139.238281 112.824219 122.183594 C 117.511719 114.421875 128.027344 121.046875 132.109375 127.265625 C 133.113281 117.96875 134.988281 108.671875 137.535156 99.507812 C 141.285156 85.863281 148.582031 73.6875 157.554688 62.851562 C 159.027344 61.046875 163.515625 53.890625 166.328125 53.554688 L 176.167969 45.929688 C 201.679688 41.582031 197.195312 83.1875 206.835938 96.765625 C 212.460938 104.726562 223.375 108.539062 232.148438 111.75 C 236.765625 113.488281 243.328125 114.957031 246.007812 119.507812 C 246.542969 120.375 246.945312 121.3125 247.28125 122.316406 C 247.480469 122.050781 247.683594 121.847656 247.816406 121.648438 C 251.898438 116.632812 259.265625 112.953125 264.6875 118.371094 C 269.042969 122.652344 269.308594 139.976562 267.570312 145.125 Z M 267.570312 145.125 " fill-opacity="1" fill-rule="evenodd"/><g clip-path="url(#1fa6b307b0)"><path fill="#5e17eb" d="M 364.59375 360.238281 L 13.125 359.234375 C 13.125 359.234375 8.371094 320.976562 28.523438 282.847656 C 34.214844 272.078125 108.675781 254.957031 149.050781 240.910156 C 152.597656 239.640625 189.628906 280.105469 189.628906 280.105469 L 227.996094 239.570312 C 227.996094 239.570312 340.890625 279.238281 352.875 294.957031 C 366.871094 313.28125 364.59375 360.238281 364.59375 360.238281 Z M 119.589844 119.507812 C 123.339844 119.707031 124.945312 127.132812 126.953125 129.941406 C 127.558594 130.746094 129.5 134.890625 130.972656 134.558594 C 132.578125 134.15625 132.914062 129.941406 133.113281 128.804688 C 134.453125 122.449219 135.660156 116.164062 137.734375 109.941406 C 144.699219 89.273438 163.515625 74.757812 169.003906 53.824219 C 209.449219 43.589844 193.378906 81.582031 197.996094 96.496094 C 201.480469 107.601562 213.734375 120.445312 218.753906 124.054688 C 221.234375 125.792969 219.023438 114.757812 221.367188 116.496094 C 223.644531 118.167969 226.992188 121.648438 230.003906 122.050781 C 232.214844 122.316406 234.421875 116.296875 235.496094 113.554688 C 235.964844 116.832031 236.03125 120.175781 235.695312 123.453125 C 235.628906 124.1875 234.492188 127.132812 234.890625 127.867188 C 235.160156 128.269531 237.503906 126.0625 237.703125 125.929688 C 239.648438 124.1875 241.519531 122.25 242.996094 120.109375 C 244.132812 121.914062 245.40625 123.585938 246.675781 124.589844 C 247.078125 124.925781 250.5625 128.003906 251.230469 127.46875 C 251.632812 127.066406 250.5625 122.316406 250.492188 121.847656 C 250.425781 121.378906 250.425781 120.910156 250.359375 120.511719 C 251.5 119.773438 253.304688 117.703125 254.980469 117.097656 C 256.183594 116.699219 257.457031 116.429688 258.730469 116.832031 C 259.398438 117.03125 263.683594 120.445312 264.21875 118.503906 C 265.359375 114.355469 280.691406 87.867188 268.105469 65.128906 C 253.171875 37.902344 209.78125 14.625 195.519531 14.894531 C 183.132812 15.09375 171.617188 18.707031 161.570312 35.160156 C 161.4375 35.429688 161.304688 35.761719 161.171875 36.097656 C 154.472656 33.890625 146.039062 36.5 140.011719 39.109375 C 114.902344 50.210938 103.71875 78.101562 100.972656 105.058594 C 99.300781 121.113281 110.480469 133.21875 110.480469 133.21875 C 110.480469 133.21875 116.777344 119.375 119.589844 119.507812 Z M 186.28125 135.894531 C 183.199219 136.496094 176.101562 152.214844 178.648438 156.5625 C 180.054688 158.90625 186.214844 164.925781 189.425781 163.921875 C 192.707031 162.917969 196.925781 154.15625 196.992188 153.019531 C 197.058594 151.277344 189.359375 135.292969 186.28125 135.894531 Z M 186.28125 135.894531 " fill-opacity="1" fill-rule="evenodd"/></g><path fill="#000000" d="M 308.613281 299.570312 C 308.414062 299.304688 307.945312 299.234375 307.675781 299.503906 C 302.789062 303.652344 299.039062 308.199219 296.09375 313.148438 C 293.347656 317.699219 291.207031 322.582031 289.261719 327.730469 C 288.058594 331.007812 286.917969 334.351562 285.714844 337.832031 C 284.910156 340.105469 284.175781 342.445312 283.503906 344.789062 C 282.835938 347.128906 282.234375 349.46875 281.765625 351.878906 C 281.628906 352.679688 281.429688 353.414062 281.363281 354.21875 C 281.226562 355.019531 281.09375 355.824219 281.027344 356.558594 C 280.960938 356.894531 281.160156 357.761719 281.160156 358.296875 C 280.960938 358.433594 280.894531 358.765625 280.960938 359.035156 C 281.09375 359.367188 281.226562 359.503906 281.296875 359.503906 C 281.5625 359.636719 282.234375 359.769531 282.367188 358.96875 C 282.433594 358.632812 282.367188 357.296875 282.433594 356.761719 C 282.5 356.023438 282.632812 355.222656 282.769531 354.484375 C 282.902344 353.75 283.035156 352.949219 283.238281 352.210938 C 283.640625 350.339844 284.109375 348.464844 284.644531 346.660156 C 285.445312 343.917969 286.316406 341.109375 287.253906 338.433594 C 288.460938 335.023438 289.597656 331.675781 290.804688 328.398438 C 292.679688 323.316406 294.753906 318.5 297.367188 314.019531 C 300.246094 309.203125 303.726562 304.652344 308.480469 300.574219 C 308.75 300.304688 308.816406 299.839844 308.613281 299.570312 Z M 281.09375 358.765625 C 280.960938 358.765625 281.160156 358.566406 281.226562 358.5 C 281.160156 358.632812 281.160156 358.765625 281.09375 358.765625 Z M 127.15625 140.910156 C 125.882812 139.640625 124.542969 138.4375 123.070312 137.367188 C 122.402344 136.898438 121.730469 136.429688 120.996094 136.027344 C 120.257812 135.628906 119.523438 135.292969 118.785156 134.957031 C 118.515625 134.824219 117.714844 134.824219 117.179688 134.757812 C 117.042969 134.558594 116.84375 134.492188 116.640625 134.492188 C 116.171875 134.492188 115.972656 134.757812 115.972656 134.824219 C 115.90625 134.957031 115.703125 135.695312 116.441406 135.894531 C 116.507812 135.894531 116.574219 135.894531 116.640625 135.960938 C 116.640625 135.960938 116.640625 135.894531 116.640625 135.894531 C 116.710938 135.894531 116.84375 135.894531 116.910156 135.828125 C 116.84375 135.894531 116.777344 135.960938 116.710938 135.960938 C 117.179688 136.027344 117.914062 136.230469 118.183594 136.363281 C 118.851562 136.699219 119.589844 137.097656 120.191406 137.5 C 120.859375 137.902344 121.464844 138.304688 122.132812 138.769531 C 122.332031 138.90625 122.46875 139.039062 122.601562 139.171875 C 122.535156 139.304688 122.46875 139.441406 122.535156 139.640625 C 122.535156 139.839844 122.667969 139.976562 122.871094 140.109375 C 122.871094 140.242188 122.800781 140.441406 122.800781 140.578125 C 122.734375 140.976562 122.667969 141.378906 122.734375 141.714844 C 122.871094 142.449219 122.9375 143.117188 123.070312 143.855469 C 123.203125 144.523438 123.339844 145.257812 123.472656 145.929688 C 123.671875 147.066406 123.875 148.269531 124.140625 149.40625 C 124.476562 151.144531 124.8125 152.882812 125.144531 154.625 C 125.414062 155.894531 125.683594 157.097656 125.949219 158.371094 C 126.015625 158.703125 126.351562 158.972656 126.6875 158.90625 C 127.019531 158.835938 127.289062 158.503906 127.222656 158.167969 C 126.6875 155.292969 126.351562 152.347656 125.816406 149.40625 C 125.613281 148.136719 125.347656 146.929688 125.078125 145.660156 L 124.207031 141.511719 C 124.140625 141.3125 124.207031 140.976562 124.277344 140.644531 C 124.277344 140.644531 124.277344 140.578125 124.277344 140.578125 C 124.878906 141.113281 125.546875 141.714844 126.082031 142.25 C 127.957031 144.054688 129.699219 145.996094 131.507812 147.933594 C 131.707031 148.203125 132.175781 148.203125 132.378906 148 C 132.644531 147.734375 132.644531 147.332031 132.445312 147.066406 C 130.703125 144.859375 129.03125 142.785156 127.15625 140.910156 Z M 116.777344 134.558594 C 116.777344 134.492188 116.910156 134.625 116.910156 134.625 C 116.976562 134.691406 116.976562 134.691406 117.042969 134.757812 C 116.84375 134.691406 116.710938 134.625 116.777344 134.558594 Z M 116.640625 135.894531 L 116.710938 135.894531 C 116.640625 135.960938 116.640625 135.960938 116.640625 135.894531 Z M 247.949219 140.976562 C 247.949219 141.046875 247.949219 141.113281 247.949219 141.113281 C 247.882812 141.046875 247.882812 140.976562 247.949219 140.976562 Z M 263.148438 126.53125 C 263.285156 126.863281 263.214844 127.265625 262.882812 127.398438 C 260.605469 128.671875 258.460938 130.140625 256.519531 131.816406 C 256.1875 132.082031 255.917969 132.351562 255.582031 132.683594 C 255.648438 132.75 255.71875 132.953125 255.71875 133.152344 C 255.71875 133.285156 255.582031 133.820312 255.515625 134.023438 L 255.25 135.359375 L 254.644531 139.039062 C 254.445312 140.042969 254.3125 141.113281 254.109375 142.117188 C 253.910156 143.117188 253.773438 144.1875 253.574219 145.191406 C 253.171875 147.265625 252.769531 149.273438 252.300781 151.277344 C 252.234375 151.613281 251.898438 151.882812 251.566406 151.8125 C 251.230469 151.746094 250.960938 151.414062 251.03125 151.078125 C 251.566406 148.203125 251.898438 145.328125 252.367188 142.515625 C 252.570312 141.3125 252.835938 140.042969 253.039062 138.839844 L 253.773438 135.160156 L 253.976562 134.222656 C 253.84375 134.355469 253.707031 134.492188 253.574219 134.558594 C 252.636719 135.492188 251.765625 136.429688 250.894531 137.367188 C 250.695312 137.566406 248.484375 139.910156 247.882812 140.976562 C 247.882812 140.976562 247.882812 140.976562 247.882812 141.046875 C 247.882812 140.976562 247.816406 140.910156 247.75 140.84375 C 247.816406 140.910156 247.816406 140.976562 247.816406 141.046875 C 247.816406 141.046875 247.75 141.113281 247.816406 141.113281 C 247.816406 141.3125 247.75 141.511719 247.546875 141.714844 C 247.28125 141.914062 246.8125 141.914062 246.609375 141.648438 C 246.476562 141.511719 246.410156 141.246094 246.476562 140.84375 C 246.542969 140.578125 246.675781 140.242188 246.945312 139.839844 C 247.75 138.570312 249.488281 136.5625 249.691406 136.363281 C 250.5625 135.359375 251.429688 134.355469 252.367188 133.421875 C 253.304688 132.484375 254.3125 131.546875 255.382812 130.746094 C 257.457031 129.074219 259.734375 127.601562 262.210938 126.398438 C 262.613281 126.0625 263.015625 126.195312 263.148438 126.53125 Z M 128.695312 81.984375 C 130.234375 75.695312 132.644531 69.40625 135.992188 63.65625 C 137.667969 60.777344 139.542969 58.035156 141.683594 55.5625 C 143.828125 53.019531 146.238281 50.746094 148.851562 48.671875 C 149.25 48.339844 149.585938 48.070312 149.988281 47.871094 C 150.390625 47.601562 150.726562 47.335938 151.125 47.066406 C 152.734375 45.996094 156.683594 43.65625 159.695312 43.589844 C 161.371094 43.523438 162.777344 44.125 163.445312 45.730469 C 163.582031 46.0625 163.445312 46.464844 163.113281 46.597656 C 162.777344 46.734375 162.375 46.597656 162.242188 46.265625 C 161.640625 44.859375 160.164062 44.792969 158.625 45.128906 C 156.082031 45.730469 153.269531 47.46875 151.996094 48.339844 C 151.59375 48.605469 151.261719 48.875 150.925781 49.074219 C 150.589844 49.339844 150.257812 49.609375 149.855469 49.875 C 147.308594 51.882812 145.03125 54.15625 142.957031 56.566406 C 140.882812 59.039062 139.007812 61.648438 137.398438 64.390625 C 134.050781 69.941406 131.640625 76.097656 130.035156 82.25 C 129.96875 82.585938 129.566406 82.785156 129.230469 82.71875 C 128.894531 82.652344 128.628906 82.316406 128.695312 81.984375 Z M 159.363281 52.351562 C 158.558594 53.019531 157.824219 53.6875 157.152344 54.359375 C 156.148438 55.359375 155.210938 56.429688 154.273438 57.5 C 153.402344 58.640625 152.53125 59.777344 151.796875 60.914062 C 150.257812 63.253906 148.917969 65.730469 147.710938 68.335938 C 147.578125 68.671875 147.710938 69.074219 148.046875 69.207031 C 148.382812 69.339844 148.78125 69.207031 148.917969 68.871094 C 150.1875 66.398438 151.59375 64.058594 153.136719 61.78125 C 153.9375 60.644531 154.742188 59.574219 155.613281 58.503906 C 156.484375 57.433594 157.355469 56.429688 158.359375 55.429688 C 159.027344 54.757812 159.695312 54.089844 160.433594 53.421875 C 161.171875 52.820312 161.90625 52.21875 162.710938 51.75 C 162.710938 51.75 163.847656 51.082031 164.453125 50.945312 C 164.519531 51.011719 164.519531 51.011719 164.585938 51.082031 C 164.921875 51.28125 165.320312 51.214844 165.523438 50.878906 C 165.789062 50.476562 165.65625 50.144531 165.457031 49.941406 C 165.320312 49.808594 165.121094 49.675781 164.785156 49.675781 C 164.117188 49.675781 161.972656 50.410156 161.90625 50.476562 C 161.035156 51.082031 160.164062 51.683594 159.363281 52.351562 Z M 164.785156 51.148438 C 164.785156 51.28125 164.585938 51.148438 164.519531 51.011719 C 164.652344 51.011719 164.785156 51.011719 164.785156 51.148438 Z M 169.273438 54.691406 C 169.539062 54.492188 169.605469 54.089844 169.472656 53.824219 C 169.472656 53.824219 169.40625 53.824219 169.472656 53.757812 C 169.472656 53.6875 169.539062 53.621094 169.539062 53.488281 C 169.675781 53.019531 170.007812 52.484375 170.410156 51.882812 C 171.347656 50.410156 172.6875 48.875 172.957031 48.539062 C 175.03125 45.929688 178.3125 42.851562 181.859375 41.382812 C 184.136719 40.445312 186.613281 40.175781 188.890625 41.316406 C 191.769531 42.71875 193.3125 44.925781 194.25 47.804688 C 194.917969 49.941406 195.253906 52.351562 195.453125 55.027344 C 194.582031 53.152344 193.511719 51.28125 192.105469 49.742188 C 190.230469 47.667969 187.886719 46.398438 185.207031 46.597656 C 183.734375 46.734375 182.328125 47.132812 181.058594 47.804688 C 179.785156 48.40625 178.578125 49.207031 177.507812 50.078125 C 177.441406 50.144531 175.835938 51.683594 175.296875 52.285156 C 175.097656 52.550781 175.03125 52.820312 175.03125 52.886719 C 175.03125 53.289062 175.164062 53.488281 175.433594 53.554688 C 175.765625 53.6875 176.167969 53.554688 176.304688 53.152344 C 176.304688 53.152344 176.304688 53.085938 176.371094 53.085938 C 176.371094 53.019531 176.371094 53.019531 176.371094 52.953125 C 176.371094 52.953125 176.371094 53.019531 176.371094 53.019531 C 176.839844 52.417969 178.3125 51.148438 178.378906 51.082031 C 179.382812 50.34375 180.523438 49.609375 181.726562 49.074219 C 182.863281 48.539062 184.136719 48.203125 185.410156 48.070312 C 187.621094 47.871094 189.425781 49.007812 190.96875 50.679688 C 192.375 52.152344 193.511719 54.089844 194.382812 55.964844 C 193.914062 55.292969 193.3125 54.691406 192.773438 54.222656 C 192.039062 53.621094 191.300781 53.085938 190.566406 52.820312 C 190.230469 52.6875 187.550781 51.75 186.480469 51.347656 C 186.414062 51.347656 186.28125 51.28125 186.214844 51.28125 C 186.214844 51.28125 186.214844 51.28125 186.144531 51.214844 C 186.078125 51.214844 186.078125 51.214844 186.078125 51.148438 C 185.8125 51.011719 185.476562 51.011719 185.277344 51.214844 C 185.007812 51.480469 185.007812 51.882812 185.277344 52.152344 C 185.34375 52.21875 185.746094 52.484375 186.347656 52.753906 C 187.550781 53.289062 189.5625 54.089844 189.894531 54.222656 C 190.5 54.492188 191.035156 54.894531 191.636719 55.359375 C 192.171875 55.828125 192.707031 56.363281 193.175781 56.964844 C 194.179688 58.171875 195.050781 59.574219 195.453125 60.777344 C 195.519531 60.980469 195.65625 61.113281 195.789062 61.179688 C 195.789062 61.179688 195.789062 61.246094 195.789062 61.246094 C 195.789062 61.582031 196.125 61.917969 196.457031 61.847656 C 196.792969 61.847656 197.058594 61.515625 197.058594 61.179688 C 197.058594 60.644531 196.992188 60.042969 196.992188 59.507812 C 196.792969 54.757812 196.660156 50.546875 195.65625 47.132812 C 194.648438 43.789062 192.84375 41.246094 189.5625 39.574219 C 186.816406 38.238281 183.871094 38.4375 181.191406 39.640625 C 177.375 41.246094 173.960938 44.59375 171.75 47.402344 C 171.414062 47.871094 169.273438 50.476562 168.46875 52.285156 C 168.269531 52.753906 168.132812 53.152344 168.132812 53.488281 C 168.132812 53.824219 168.199219 54.15625 168.335938 54.359375 C 168.535156 54.828125 168.9375 54.894531 169.273438 54.691406 Z M 176.035156 52.484375 C 176.167969 52.550781 176.304688 52.6875 176.304688 52.820312 C 176.304688 52.617188 176.167969 52.550781 176.035156 52.484375 Z M 169.40625 53.757812 C 169.40625 53.757812 169.472656 53.824219 169.40625 53.757812 C 169.472656 53.824219 169.40625 53.757812 169.40625 53.757812 Z M 176.371094 53.152344 C 176.371094 53.222656 176.371094 53.289062 176.304688 53.222656 C 176.371094 53.222656 176.371094 53.222656 176.371094 53.152344 C 176.371094 53.222656 176.371094 53.152344 176.371094 53.152344 Z M 186.214844 51.480469 C 186.214844 51.480469 186.144531 51.414062 186.144531 51.414062 C 186.214844 51.347656 186.214844 51.414062 186.214844 51.480469 Z M 170.410156 36.566406 C 170.277344 36.230469 170.210938 35.828125 170.34375 35.429688 C 170.613281 34.359375 171.949219 32.953125 172.351562 32.621094 C 173.625 31.414062 175.164062 30.480469 176.703125 29.609375 C 178.246094 28.804688 179.917969 28.136719 181.527344 27.535156 C 186.347656 25.863281 191.636719 25.0625 196.660156 25.664062 C 201.746094 26.265625 206.570312 28.339844 210.386719 32.285156 C 212.929688 34.894531 214.535156 38.039062 215.542969 41.316406 C 217.015625 46.128906 217.28125 51.480469 217.550781 56.5 C 217.75 60.914062 218.085938 65.261719 218.6875 69.609375 C 219.289062 73.957031 220.09375 78.238281 221.367188 82.449219 C 222.304688 85.527344 223.375 88.605469 224.914062 91.347656 C 225.921875 93.152344 227.191406 94.890625 228.730469 96.363281 C 229 96.632812 229 97.03125 228.730469 97.300781 C 228.464844 97.566406 228.0625 97.566406 227.792969 97.300781 C 226.121094 95.695312 224.78125 93.957031 223.710938 92.015625 C 222.101562 89.207031 220.898438 86.0625 219.960938 82.851562 C 218.890625 79.441406 218.152344 75.964844 217.550781 72.484375 C 216.679688 67.265625 216.210938 61.984375 215.875 56.632812 C 215.609375 51.75 215.339844 46.53125 213.867188 41.851562 C 212.929688 38.773438 211.457031 35.898438 209.113281 33.488281 C 205.5625 29.808594 201.078125 27.871094 196.324219 27.269531 C 191.503906 26.667969 186.480469 27.402344 181.859375 28.941406 C 180.320312 29.476562 178.714844 30.078125 177.171875 30.878906 C 175.699219 31.617188 174.292969 32.550781 173.089844 33.621094 C 172.886719 33.824219 172.21875 34.492188 171.75 35.160156 C 171.617188 35.363281 171.480469 35.5625 171.414062 35.761719 C 171.414062 35.828125 171.414062 35.828125 171.414062 35.898438 C 171.414062 35.898438 171.480469 35.964844 171.550781 35.964844 C 171.882812 36.097656 172.085938 36.433594 172.019531 36.765625 C 171.882812 37.101562 171.550781 37.300781 171.214844 37.234375 C 170.878906 37.167969 170.613281 36.832031 170.410156 36.566406 Z M 234.960938 49.941406 C 234.757812 49.675781 234.824219 49.207031 235.09375 49.007812 C 235.429688 48.804688 235.828125 48.875 236.03125 49.140625 C 236.367188 49.542969 236.566406 50.144531 236.699219 50.746094 C 236.96875 51.949219 236.96875 53.421875 237.035156 54.292969 C 237.167969 56.03125 237.304688 57.835938 237.304688 59.574219 C 237.304688 62.183594 237.234375 64.859375 237.167969 67.46875 C 237.101562 70.410156 236.96875 73.421875 237.035156 76.363281 C 237.035156 80.847656 237.304688 85.261719 238.242188 89.542969 C 239.246094 94.222656 240.917969 98.703125 243.933594 102.851562 C 244.132812 103.121094 244.066406 103.519531 243.796875 103.789062 C 243.53125 103.988281 243.128906 103.921875 242.925781 103.65625 C 239.78125 99.441406 237.90625 94.757812 236.765625 89.941406 C 235.761719 85.59375 235.429688 81.046875 235.429688 76.496094 C 235.429688 73.488281 235.496094 70.546875 235.628906 67.535156 C 235.761719 64.925781 235.828125 62.316406 235.828125 59.710938 C 235.828125 57.96875 235.761719 56.230469 235.628906 54.558594 C 235.5625 53.824219 235.628906 52.6875 235.429688 51.617188 C 235.359375 50.945312 235.226562 50.34375 234.960938 49.941406 Z M 251.164062 120.445312 C 251.5 120.308594 251.632812 119.910156 251.5 119.574219 C 251.429688 119.507812 251.363281 119.375 251.296875 119.304688 C 251.363281 119.039062 251.566406 118.636719 251.566406 118.503906 C 251.632812 118.035156 251.632812 117.566406 251.699219 117.097656 C 251.765625 116.632812 251.832031 116.164062 251.898438 115.695312 C 252.101562 114.421875 252.367188 113.152344 252.636719 111.949219 C 252.972656 110.679688 253.304688 109.472656 253.640625 108.269531 C 254.175781 106.398438 254.710938 104.589844 255.113281 102.785156 C 255.515625 100.914062 255.851562 98.972656 255.984375 97.101562 C 256.253906 93.355469 255.984375 89.609375 254.78125 85.660156 C 254.644531 85.328125 254.3125 85.125 253.976562 85.195312 C 253.640625 85.328125 253.441406 85.660156 253.574219 85.996094 C 254.445312 89.007812 254.710938 91.882812 254.644531 94.691406 C 254.578125 97.367188 254.109375 99.976562 253.507812 102.585938 C 253.105469 104.324219 252.703125 106.0625 252.167969 107.800781 C 251.832031 109.074219 251.5 110.34375 251.230469 111.613281 C 250.960938 112.886719 250.695312 114.15625 250.492188 115.492188 C 250.425781 115.960938 250.359375 116.496094 250.292969 116.964844 C 250.226562 117.433594 250.226562 117.96875 250.160156 118.4375 C 250.160156 118.769531 249.957031 119.441406 249.957031 119.773438 C 249.957031 120.042969 250.09375 120.242188 250.160156 120.308594 C 250.492188 120.511719 250.761719 120.644531 251.164062 120.445312 Z M 251.363281 119.441406 C 251.5 119.574219 251.566406 119.640625 251.429688 119.707031 C 251.296875 119.640625 251.296875 119.574219 251.363281 119.441406 Z M 116.375 106.597656 C 115.90625 103.386719 115.703125 100.109375 115.972656 96.898438 C 116.375 91.816406 117.847656 86.730469 120.929688 81.582031 C 121.128906 81.246094 121.53125 81.179688 121.796875 81.382812 C 122.132812 81.582031 122.199219 81.984375 122.066406 82.25 C 119.253906 87.265625 117.980469 92.148438 117.648438 97.03125 C 117.445312 100.109375 117.648438 103.253906 118.046875 106.398438 C 118.652344 110.945312 119.855469 115.492188 121.195312 120.242188 C 121.328125 120.578125 121.128906 120.980469 120.726562 121.046875 C 120.390625 121.179688 119.992188 120.910156 119.921875 120.578125 C 118.316406 115.828125 117.042969 111.214844 116.375 106.597656 Z M 130.167969 93.085938 C 130.167969 93.085938 130.167969 93.152344 130.101562 93.152344 C 130.101562 93.152344 130.167969 93.085938 130.167969 93.085938 Z M 127.421875 108.335938 C 127.289062 105.796875 127.222656 103.320312 127.355469 100.777344 C 127.488281 99.105469 127.691406 97.433594 127.957031 95.761719 C 127.957031 95.695312 128.496094 93.421875 128.828125 92.683594 C 128.964844 92.351562 129.164062 92.148438 129.296875 92.082031 C 129.5 91.949219 129.699219 91.949219 129.898438 92.015625 C 130.234375 92.148438 130.4375 92.550781 130.234375 92.886719 C 130.234375 92.953125 130.167969 93.019531 130.101562 93.085938 C 130.101562 93.085938 130.101562 93.085938 130.101562 93.152344 C 130.035156 93.152344 130.035156 93.21875 129.96875 93.21875 C 130.035156 93.21875 130.035156 93.21875 130.101562 93.152344 C 129.832031 93.890625 129.5 95.960938 129.5 96.03125 C 129.296875 97.234375 129.230469 98.503906 129.097656 99.707031 C 129.03125 100.511719 128.964844 101.378906 128.894531 102.183594 C 128.761719 104.257812 128.695312 106.332031 128.695312 108.402344 C 128.695312 108.738281 128.425781 109.074219 128.09375 109.074219 C 127.757812 109.003906 127.421875 108.671875 127.421875 108.335938 Z M 155.679688 205.992188 C 156.28125 206.730469 180.253906 221.3125 188.089844 221.445312 C 197.597656 221.578125 220.5625 208.335938 222.707031 206.328125 C 223.441406 205.660156 204.359375 233.082031 192.574219 234.890625 C 174.695312 237.566406 155.679688 205.992188 155.679688 205.992188 Z M 151.996094 103.386719 C 157.019531 99.84375 163.378906 97.367188 169.605469 98.035156 C 171.414062 98.238281 174.761719 98.90625 175.433594 100.980469 C 175.765625 102.117188 174.429688 102.585938 173.558594 102.652344 C 170.746094 103.050781 167.800781 102.71875 164.988281 102.851562 C 158.15625 103.121094 151.996094 104.992188 146.773438 109.472656 L 146.507812 108.804688 C 146.171875 108.539062 147.375 107.332031 147.511719 107.199219 C 148.851562 105.796875 150.390625 104.523438 151.996094 103.386719 Z M 237.234375 107.46875 C 231.277344 103.320312 223.84375 102.785156 216.746094 103.253906 C 215.808594 103.320312 214.871094 103.386719 214 103.453125 C 214.738281 105.058594 215.742188 106.53125 216.949219 107.800781 C 217.214844 108.070312 217.214844 108.46875 216.949219 108.738281 C 216.679688 109.003906 216.277344 109.003906 216.011719 108.738281 C 214.46875 107.265625 213.265625 105.527344 212.394531 103.585938 C 211.457031 103.65625 210.519531 103.722656 209.515625 103.722656 C 208.644531 103.722656 207.304688 103.855469 206.703125 103.121094 C 206.03125 102.316406 206.96875 100.980469 207.574219 100.445312 C 208.445312 99.574219 209.515625 99.039062 210.71875 98.703125 C 210.183594 96.632812 209.851562 94.425781 209.648438 92.285156 C 209.382812 89.675781 209.3125 87.066406 209.246094 84.726562 C 209.179688 82.984375 209.113281 81.179688 209.113281 79.441406 C 209.113281 78.238281 209.179688 77.03125 209.3125 75.828125 C 209.382812 75.496094 209.714844 75.226562 210.050781 75.226562 C 210.386719 75.292969 210.652344 75.628906 210.652344 75.964844 C 210.519531 77.101562 210.519531 78.238281 210.585938 79.441406 C 210.652344 81.179688 210.785156 82.984375 210.855469 84.726562 C 210.921875 87.066406 211.054688 89.609375 211.324219 92.214844 C 211.523438 94.289062 211.792969 96.363281 212.261719 98.4375 C 213.128906 98.238281 214 98.167969 214.804688 98.101562 C 221.769531 97.234375 231.945312 102.25 237.234375 107.46875 Z M 149.519531 126.664062 C 149.519531 126.796875 149.519531 126.863281 149.453125 127 C 149.320312 127.332031 148.917969 127.46875 148.582031 127.332031 C 148.179688 127.199219 148.046875 126.863281 148.046875 126.464844 C 148.046875 126.261719 148.246094 125.996094 148.449219 125.660156 C 148.78125 125.257812 149.320312 124.792969 149.386719 124.65625 C 150.257812 123.855469 151.261719 123.121094 152.398438 122.515625 C 153.46875 121.914062 154.609375 121.445312 155.8125 121.113281 C 156.953125 120.777344 158.089844 120.644531 159.296875 120.710938 C 161.035156 120.710938 162.710938 121.113281 164.382812 121.714844 C 167.195312 122.71875 169.742188 124.457031 171.550781 126.261719 C 171.816406 126.53125 171.816406 126.933594 171.550781 127.199219 C 171.28125 127.46875 170.878906 127.46875 170.613281 127.199219 C 168.9375 125.59375 166.527344 124.121094 163.847656 123.253906 C 162.644531 122.851562 161.304688 122.585938 160.03125 122.449219 C 158.761719 122.382812 157.488281 122.449219 156.214844 122.71875 C 155.078125 122.984375 154.074219 123.386719 153.136719 123.921875 C 152.128906 124.457031 151.195312 125.058594 150.324219 125.792969 C 150.324219 125.863281 149.71875 126.464844 149.519531 126.664062 Z M 229.535156 130.210938 C 227.257812 128.269531 224.714844 126.664062 221.835938 125.929688 C 220.496094 125.59375 219.089844 125.460938 217.550781 125.59375 C 216.210938 125.726562 214.804688 126.0625 213.332031 126.664062 C 212.261719 127.132812 210.71875 128.605469 209.449219 129.40625 C 208.980469 129.742188 208.511719 129.941406 208.109375 130.007812 C 207.773438 130.074219 207.4375 129.808594 207.371094 129.472656 C 207.304688 129.140625 207.574219 128.738281 207.90625 128.671875 C 208.175781 128.605469 208.445312 128.46875 208.777344 128.203125 C 209.515625 127.734375 210.25 127 210.988281 126.398438 C 211.65625 125.863281 212.261719 125.460938 212.796875 125.191406 C 214.46875 124.457031 216.011719 124.054688 217.484375 123.921875 C 219.222656 123.789062 220.832031 123.921875 222.371094 124.324219 C 225.453125 125.191406 228.195312 127.066406 230.539062 129.207031 C 230.808594 129.40625 230.808594 129.875 230.605469 130.140625 C 230.207031 130.476562 229.804688 130.476562 229.535156 130.210938 Z M 168.601562 172.484375 C 168.46875 172.148438 168.269531 172.082031 168.132812 172.082031 C 167.867188 171.949219 167.195312 172.015625 167.195312 172.816406 C 167.195312 173.152344 167.53125 174.488281 167.664062 175.023438 C 167.867188 175.625 168.066406 176.296875 168.269531 176.898438 C 168.46875 177.5 168.738281 178.167969 169.003906 178.769531 C 169.742188 180.308594 170.8125 181.378906 172.085938 182.113281 C 173.960938 183.183594 176.234375 183.453125 178.511719 183.386719 C 180.921875 183.320312 183.332031 183.183594 185.8125 182.984375 C 188.019531 182.785156 190.296875 182.582031 192.574219 182.382812 C 195.988281 182.046875 199.335938 181.714844 202.683594 181.445312 C 204.894531 181.246094 206.433594 180.109375 207.640625 178.570312 C 208.644531 177.230469 209.382812 175.625 210.050781 174.289062 C 210.519531 173.21875 210.988281 172.214844 211.457031 171.679688 C 211.722656 171.414062 211.65625 171.011719 211.390625 170.742188 C 211.121094 170.476562 210.71875 170.542969 210.453125 170.8125 C 209.917969 171.414062 209.382812 172.484375 208.777344 173.753906 C 208.175781 175.023438 207.4375 176.496094 206.5 177.765625 C 205.5625 178.972656 204.292969 179.90625 202.550781 179.972656 C 198.734375 180.175781 194.851562 180.578125 190.96875 180.910156 C 188.421875 181.179688 185.8125 181.378906 183.265625 181.578125 C 181.660156 181.714844 180.054688 181.78125 178.445312 181.847656 C 176.773438 181.914062 175.097656 181.78125 173.625 181.246094 C 172.21875 180.710938 171.011719 179.773438 170.277344 178.234375 C 170.007812 177.632812 169.742188 177.097656 169.539062 176.496094 C 169.339844 175.894531 169.070312 175.292969 168.9375 174.691406 C 168.871094 174.421875 168.535156 173.753906 168.46875 173.285156 C 168.667969 172.949219 168.667969 172.683594 168.601562 172.484375 Z M 168.46875 172.949219 C 168.46875 172.816406 168.46875 172.683594 168.535156 172.683594 C 168.667969 172.683594 168.535156 172.882812 168.46875 172.949219 Z M 244.402344 245.523438 C 242.527344 250.339844 240.652344 255.15625 238.777344 259.972656 C 234.355469 271.144531 229.871094 282.3125 225.382812 293.550781 C 224.582031 295.625 223.644531 297.699219 222.707031 299.769531 C 221.769531 301.84375 220.695312 303.851562 219.625 305.859375 C 219.492188 306.058594 218.421875 308.199219 217.816406 308.933594 C 217.417969 309.402344 216.949219 309.46875 216.746094 309.402344 C 216.144531 309.269531 215.40625 308.734375 214.605469 308.066406 C 213.332031 306.863281 211.925781 305.121094 211.1875 304.453125 C 208.980469 302.378906 206.835938 300.238281 204.761719 298.03125 C 201.679688 294.753906 198.667969 291.34375 195.585938 288 C 195.050781 287.398438 193.109375 284.988281 191.234375 283.183594 C 190.429688 282.449219 189.695312 281.777344 189.023438 281.378906 C 188.890625 281.308594 188.691406 281.242188 188.558594 281.175781 C 188.488281 281.175781 188.421875 281.109375 188.355469 281.109375 C 187.6875 281.242188 187.082031 281.84375 186.414062 282.515625 C 184.738281 284.253906 183.132812 286.863281 182.0625 287.867188 C 180.320312 289.539062 178.511719 291.144531 176.703125 292.679688 C 172.417969 296.226562 167.933594 299.503906 163.847656 303.183594 C 162.976562 303.917969 160.300781 306.863281 157.957031 308.734375 C 157.152344 309.335938 156.417969 309.871094 155.746094 310.140625 C 155.210938 310.40625 154.742188 310.472656 154.339844 310.40625 C 154.140625 310.40625 153.871094 310.273438 153.605469 310.003906 C 153.335938 309.738281 153.066406 309.335938 152.867188 308.734375 C 152.0625 306.929688 151.328125 303.515625 151.195312 302.980469 C 150.390625 300.441406 149.519531 297.898438 148.78125 295.355469 C 146.976562 289.402344 145.234375 283.382812 143.425781 277.429688 C 142.152344 273.148438 140.816406 268.867188 139.476562 264.589844 C 138.605469 261.710938 137.667969 258.902344 136.730469 256.09375 C 136.597656 255.757812 134.988281 251.679688 134.65625 250.007812 C 134.519531 249.539062 134.585938 249.203125 134.65625 249.003906 C 134.722656 248.800781 134.855469 248.667969 134.988281 248.601562 C 135.324219 248.402344 135.726562 248.46875 135.925781 248.800781 C 136.0625 249.003906 136.0625 249.203125 135.992188 249.40625 C 135.992188 249.472656 135.992188 249.605469 136.0625 249.671875 C 136.394531 251.277344 138.003906 255.289062 138.136719 255.625 C 139.074219 258.433594 140.011719 261.3125 140.882812 264.1875 C 142.222656 268.46875 143.558594 272.75 144.898438 277.03125 C 146.773438 282.980469 148.515625 289.003906 150.324219 294.957031 C 151.125 297.496094 151.929688 300.039062 152.734375 302.582031 C 152.933594 303.117188 153.804688 307.261719 154.675781 308.734375 C 154.675781 308.734375 154.742188 308.800781 154.742188 308.867188 C 154.875 308.867188 155.011719 308.800781 155.144531 308.734375 C 155.679688 308.46875 156.347656 308.066406 157.019531 307.53125 C 159.296875 305.65625 161.972656 302.78125 162.777344 301.980469 C 166.929688 298.300781 171.414062 294.957031 175.699219 291.410156 C 177.507812 289.871094 179.316406 288.332031 180.992188 286.726562 C 182.0625 285.726562 183.601562 283.117188 185.277344 281.378906 C 186.214844 280.441406 187.152344 279.703125 188.019531 279.4375 C 188.421875 279.371094 188.957031 279.4375 189.492188 279.703125 C 190.097656 279.972656 190.765625 280.507812 191.570312 281.175781 C 193.710938 283.117188 196.191406 286.191406 196.792969 286.863281 C 199.871094 290.207031 202.820312 293.617188 205.898438 296.894531 C 207.90625 299.101562 210.050781 301.242188 212.261719 303.25 C 212.996094 303.917969 214.402344 305.65625 215.675781 306.863281 C 216.078125 307.195312 216.410156 307.53125 216.746094 307.730469 C 217.28125 306.929688 218.152344 305.324219 218.21875 305.121094 C 219.289062 303.183594 220.296875 301.175781 221.300781 299.167969 C 222.238281 297.164062 223.109375 295.089844 223.976562 293.015625 C 228.464844 281.777344 233.019531 270.675781 237.503906 259.503906 C 239.445312 254.6875 241.320312 249.941406 243.195312 245.125 C 243.328125 244.789062 243.664062 244.65625 244 244.722656 C 244.402344 244.855469 244.535156 245.191406 244.402344 245.523438 Z M 58.722656 299.90625 C 58.65625 299.972656 58.589844 299.972656 58.589844 299.90625 C 58.65625 299.839844 58.65625 299.839844 58.722656 299.90625 Z M 83.496094 358.097656 C 83.566406 358.433594 83.363281 358.765625 83.027344 358.902344 C 82.695312 358.96875 82.359375 358.765625 82.226562 358.433594 C 79.546875 347.929688 78.808594 338.164062 76.199219 328.734375 C 74.523438 322.648438 72.046875 316.761719 67.695312 310.875 C 65.886719 308.398438 64.414062 306.527344 63.207031 304.988281 C 60.796875 301.980469 59.527344 300.640625 58.855469 300.105469 C 58.789062 300.039062 58.722656 299.972656 58.65625 299.972656 C 58.722656 299.972656 58.855469 299.90625 58.855469 299.90625 C 58.789062 299.90625 58.722656 299.972656 58.589844 299.972656 C 58.523438 299.90625 58.523438 299.90625 58.523438 299.972656 C 58.320312 299.972656 58.054688 299.769531 57.984375 299.570312 C 57.851562 299.234375 57.984375 298.835938 58.386719 298.703125 C 58.523438 298.632812 58.789062 298.566406 59.257812 298.835938 C 59.59375 299.035156 60.195312 299.503906 61.402344 300.773438 C 62.875 302.3125 65.152344 305.121094 68.902344 310.003906 C 73.453125 316.09375 76.066406 322.113281 77.738281 328.398438 C 80.351562 337.695312 80.953125 347.460938 83.496094 358.097656 Z M 83.496094 358.097656 " fill-opacity="1" fill-rule="nonzero"/></svg>