<svg xmlns="http://www.w3.org/2000/svg" xmlns:xlink="http://www.w3.org/1999/xlink" width="500" zoomAndPan="magnify" viewBox="0 0 375 374.999991" height="500" preserveAspectRatio="xMidYMid meet" version="1.0"><defs><clipPath id="id1"><path d="M 215.078125 74.039062 L 277.328125 74.039062 L 277.328125 145.289062 L 215.078125 145.289062 Z M 215.078125 74.039062 " clip-rule="nonzero"/></clipPath><clipPath id="id2"><path d="M 37.5 145.332031 L 140.25 145.332031 L 140.25 260.082031 L 37.5 260.082031 Z M 37.5 145.332031 " clip-rule="nonzero"/></clipPath><clipPath id="id3"><path d="M 222.296875 222.296875 L 375 222.296875 L 375 375 L 222.296875 375 Z M 222.296875 222.296875 " clip-rule="nonzero"/></clipPath><clipPath id="id4"><path d="M 188 152.703125 L 205 152.703125 L 205 169 L 188 169 Z M 188 152.703125 " clip-rule="nonzero"/></clipPath><clipPath id="id5"><path d="M 159.921875 172 L 183 172 L 183 195 L 159.921875 195 Z M 159.921875 172 " clip-rule="nonzero"/></clipPath><clipPath id="id6"><path d="M 185 193 L 215.421875 193 L 215.421875 222.453125 L 185 222.453125 Z M 185 193 " clip-rule="nonzero"/></clipPath></defs><rect x="-37.5" width="450" fill="#ffffff" y="-37.499999" height="449.999989" fill-opacity="1"/><rect x="-37.5" width="450" fill="#ffffff" y="-37.499999" height="449.999989" fill-opacity="1"/><rect x="-37.5" width="450" fill="#ffffff" y="-37.499999" height="449.999989" fill-opacity="1"/><rect x="-37.5" width="450" fill="#ffffff" y="-37.499999" height="449.999989" fill-opacity="1"/><g clip-path="url(#id1)"><path fill="#e44d26" d="M 220.726562 138.011719 L 215.058594 74.238281 L 277.34375 74.238281 L 271.671875 138 L 246.160156 145.089844 Z M 220.726562 138.011719 " fill-opacity="1" fill-rule="nonzero"/></g><path fill="#f16529" d="M 266.8125 133.941406 L 271.664062 79.453125 L 246.203125 79.453125 L 246.203125 139.671875 Z M 266.8125 133.941406 " fill-opacity="1" fill-rule="nonzero"/><path fill="#ebebeb" d="M 246.175781 87.273438 L 226.648438 87.273438 L 228.75 110.925781 L 246.203125 110.925781 L 246.203125 103.105469 L 235.882812 103.105469 L 235.171875 95.09375 L 246.203125 95.09375 L 246.203125 87.273438 Z M 246.203125 123.390625 L 246.167969 123.398438 L 237.484375 121.046875 L 236.933594 114.8125 L 229.101562 114.8125 L 230.191406 127.089844 L 246.167969 131.519531 L 246.203125 131.507812 Z M 246.203125 123.390625 " fill-opacity="1" fill-rule="nonzero"/><path fill="#ffffff" d="M 246.175781 110.925781 L 255.777344 110.925781 L 254.894531 121.066406 L 246.199219 123.421875 L 246.199219 131.558594 L 262.183594 127.113281 L 264.324219 103.101562 L 246.203125 103.101562 Z M 265.519531 89.371094 L 265.707031 87.273438 L 246.171875 87.273438 L 246.171875 95.09375 L 265.003906 95.09375 L 265.160156 93.335938 Z M 265.519531 89.371094 " fill-opacity="1" fill-rule="nonzero"/><g clip-path="url(#id2)"><path fill="#0277bd" d="M 140.234375 145.332031 L 37.515625 145.332031 L 46.578125 248.003906 L 88.875 260.082031 L 131.171875 248.003906 Z M 140.234375 145.332031 " fill-opacity="1" fill-rule="nonzero"/></g><path fill="#039be5" d="M 88.875 154.390625 L 88.875 250.71875 L 122.710938 241.058594 L 130.265625 154.390625 Z M 88.875 154.390625 " fill-opacity="1" fill-rule="nonzero"/><path fill="#ffffff" d="M 116.367188 169.488281 L 88.875 169.488281 L 88.875 181.566406 L 103.679688 181.566406 L 102.773438 193.648438 L 88.875 193.648438 L 88.875 205.726562 L 102.167969 205.726562 L 101.261719 219.316406 L 88.875 223.542969 L 88.875 236.226562 L 112.742188 228.375 L 114.855469 193.648438 Z M 116.367188 169.488281 " fill-opacity="1" fill-rule="nonzero"/><path fill="#eeeeee" d="M 88.875 169.488281 L 88.875 181.566406 L 61.984375 181.566406 L 61.078125 169.488281 Z M 74.976562 193.648438 L 75.582031 205.726562 L 88.875 205.726562 L 88.875 193.648438 Z M 76.1875 211.765625 L 64.101562 211.765625 L 65.007812 228.375 L 88.875 236.226562 L 88.875 223.542969 L 76.488281 219.316406 Z M 76.1875 211.765625 " fill-opacity="1" fill-rule="nonzero"/><g clip-path="url(#id3)"><path fill="#f7df1e" d="M 222.296875 222.296875 L 375.296875 222.296875 L 375.296875 375.296875 L 222.296875 375.296875 Z M 222.296875 222.296875 " fill-opacity="1" fill-rule="nonzero"/></g><path fill="#000000" d="M 262.527344 350.152344 L 274.234375 343.070312 C 276.492188 347.074219 278.546875 350.464844 283.480469 350.464844 C 288.199219 350.464844 291.183594 348.613281 291.183594 341.429688 L 291.183594 292.539062 L 305.554688 292.539062 L 305.554688 341.632812 C 305.554688 356.519531 296.832031 363.300781 284.09375 363.300781 C 272.589844 363.300781 265.914062 357.34375 262.527344 350.152344 " fill-opacity="1" fill-rule="nonzero"/><path fill="#000000" d="M 313.367188 348.613281 L 325.074219 341.835938 C 328.160156 346.867188 332.164062 350.566406 339.246094 350.566406 C 345.207031 350.566406 349.007812 347.589844 349.007812 343.476562 C 349.007812 338.546875 345.105469 336.800781 338.53125 333.925781 L 334.9375 332.386719 C 324.5625 327.96875 317.683594 322.429688 317.683594 310.714844 C 317.683594 299.933594 325.894531 291.714844 338.738281 291.714844 C 347.875 291.714844 354.449219 294.902344 359.171875 303.21875 L 347.976562 310.410156 C 345.515625 305.992188 342.84375 304.246094 338.738281 304.246094 C 334.523438 304.246094 331.851562 306.917969 331.851562 310.410156 C 331.851562 314.726562 334.523438 316.46875 340.6875 319.140625 L 344.277344 320.675781 C 356.5 325.917969 363.386719 331.253906 363.386719 343.273438 C 363.386719 356.214844 353.21875 363.300781 339.558594 363.300781 C 326.207031 363.300781 317.582031 356.929688 313.367188 348.613281 " fill-opacity="1" fill-rule="nonzero"/><g clip-path="url(#id4)"><path fill="#0f0e0c" d="M 196.476562 154.8125 C 193.410156 154.8125 190.917969 157.300781 190.917969 160.355469 C 190.917969 161.304688 191.167969 162.246094 191.632812 163.070312 C 191.835938 163.433594 192.085938 163.773438 192.367188 164.082031 C 193.421875 165.230469 194.917969 165.894531 196.476562 165.894531 C 199.546875 165.894531 202.039062 163.40625 202.039062 160.355469 C 202.039062 157.300781 199.546875 154.8125 196.476562 154.8125 Z M 196.476562 168.007812 C 194.324219 168.007812 192.25 167.097656 190.796875 165.507812 C 190.40625 165.078125 190.066406 164.609375 189.78125 164.113281 C 189.136719 162.972656 188.792969 161.671875 188.792969 160.355469 C 188.792969 156.132812 192.242188 152.699219 196.476562 152.699219 C 200.714844 152.699219 204.164062 156.132812 204.164062 160.355469 C 204.164062 164.570312 200.714844 168.007812 196.476562 168.007812 " fill-opacity="1" fill-rule="nonzero"/></g><path fill="#0f0e0c" d="M 178.730469 177.519531 C 178.4375 177.519531 178.152344 177.402344 177.941406 177.175781 C 177.546875 176.742188 177.578125 176.074219 178.011719 175.679688 L 190.867188 164.015625 C 191.304688 163.617188 191.972656 163.652344 192.367188 164.082031 C 192.761719 164.515625 192.730469 165.183594 192.296875 165.578125 L 179.445312 177.246094 C 179.238281 177.433594 178.984375 177.519531 178.730469 177.519531 " fill-opacity="1" fill-rule="nonzero"/><g clip-path="url(#id5)"><path fill="#0f0e0c" d="M 171.214844 174.214844 C 166.195312 174.214844 162.109375 178.285156 162.109375 183.28125 C 162.109375 188.28125 166.195312 192.351562 171.214844 192.351562 C 173.914062 192.351562 176.457031 191.164062 178.195312 189.101562 C 179.5625 187.476562 180.316406 185.410156 180.316406 183.28125 C 180.316406 181.722656 179.914062 180.179688 179.148438 178.828125 C 178.808594 178.238281 178.40625 177.683594 177.941406 177.175781 C 176.222656 175.296875 173.769531 174.214844 171.214844 174.214844 Z M 171.214844 194.464844 C 165.019531 194.464844 159.988281 189.449219 159.988281 183.28125 C 159.988281 177.117188 165.019531 172.097656 171.214844 172.097656 C 174.363281 172.097656 177.390625 173.429688 179.515625 175.75 C 180.082031 176.375 180.582031 177.058594 180.996094 177.789062 C 181.941406 179.457031 182.441406 181.359375 182.441406 183.28125 C 182.441406 185.90625 181.511719 188.453125 179.824219 190.460938 C 177.679688 193.003906 174.542969 194.464844 171.214844 194.464844 " fill-opacity="1" fill-rule="nonzero"/></g><path fill="#0f0e0c" d="M 190.195312 200.171875 C 189.953125 200.171875 189.710938 200.089844 189.511719 199.925781 L 178.328125 190.589844 C 177.875 190.214844 177.816406 189.550781 178.195312 189.101562 C 178.574219 188.65625 179.242188 188.59375 179.691406 188.96875 L 190.875 198.304688 C 191.324219 198.679688 191.382812 199.34375 191.007812 199.792969 C 190.796875 200.042969 190.496094 200.171875 190.195312 200.171875 " fill-opacity="1" fill-rule="nonzero"/><g clip-path="url(#id6)"><path fill="#0f0e0c" d="M 200.644531 195.308594 C 196.914062 195.308594 193.402344 196.945312 191.007812 199.792969 C 189.117188 202.039062 188.078125 204.890625 188.078125 207.824219 C 188.078125 214.726562 193.714844 220.339844 200.644531 220.339844 C 207.570312 220.339844 213.207031 214.726562 213.207031 207.824219 C 213.207031 200.925781 207.570312 195.308594 200.644531 195.308594 Z M 200.644531 222.457031 C 192.546875 222.457031 185.953125 215.890625 185.953125 207.824219 C 185.953125 204.394531 187.171875 201.0625 189.378906 198.433594 C 192.179688 195.105469 196.285156 193.195312 200.644531 193.195312 C 208.742188 193.195312 215.332031 199.757812 215.332031 207.824219 C 215.332031 215.890625 208.742188 222.457031 200.644531 222.457031 " fill-opacity="1" fill-rule="nonzero"/></g></svg>