<svg xmlns="http://www.w3.org/2000/svg" xmlns:xlink="http://www.w3.org/1999/xlink" width="500" zoomAndPan="magnify" viewBox="0 0 375 374.999991" height="500" preserveAspectRatio="xMidYMid meet" version="1.0"><defs><clipPath id="id1"><path d="M 7.480469 268 L 367.480469 268 L 367.480469 298 L 7.480469 298 Z M 7.480469 268 " clip-rule="nonzero"/></clipPath><clipPath id="id2"><path d="M 7.480469 245 L 367.480469 245 L 367.480469 287 L 7.480469 287 Z M 7.480469 245 " clip-rule="nonzero"/></clipPath><clipPath id="id3"><path d="M 7.480469 22 L 367.480469 22 L 367.480469 246 L 7.480469 246 Z M 7.480469 22 " clip-rule="nonzero"/></clipPath></defs><path fill="#e6e9ed" d="M 24.621094 40.027344 L 36.050781 40.027344 L 36.050781 228.828125 L 24.621094 228.828125 Z M 24.621094 40.027344 " fill-opacity="1" fill-rule="nonzero"/><path fill="#434a54" d="M 36.050781 40.085938 L 350.335938 40.085938 L 350.335938 228.769531 L 36.050781 228.769531 Z M 36.050781 40.085938 " fill-opacity="1" fill-rule="nonzero"/><path fill="#ccd1d9" d="M 196.050781 265.949219 C 196.050781 266.511719 195.996094 267.070312 195.886719 267.621094 C 195.777344 268.175781 195.613281 268.710938 195.398438 269.230469 C 195.183594 269.75 194.917969 270.246094 194.605469 270.714844 C 194.292969 271.183594 193.9375 271.617188 193.539062 272.015625 C 193.140625 272.414062 192.710938 272.769531 192.242188 273.082031 C 191.773438 273.394531 191.28125 273.660156 190.757812 273.875 C 190.238281 274.089844 189.703125 274.253906 189.152344 274.363281 C 188.597656 274.472656 188.042969 274.527344 187.480469 274.527344 C 186.917969 274.527344 186.359375 274.472656 185.808594 274.363281 C 185.253906 274.253906 184.71875 274.089844 184.199219 273.875 C 183.679688 273.660156 183.183594 273.394531 182.71875 273.082031 C 182.25 272.769531 181.816406 272.414062 181.417969 272.015625 C 181.019531 271.617188 180.664062 271.183594 180.351562 270.714844 C 180.039062 270.246094 179.777344 269.75 179.558594 269.230469 C 179.34375 268.710938 179.183594 268.175781 179.074219 267.621094 C 178.960938 267.070312 178.90625 266.511719 178.90625 265.949219 C 178.90625 265.382812 178.960938 264.828125 179.074219 264.273438 C 179.183594 263.722656 179.34375 263.183594 179.558594 262.664062 C 179.777344 262.144531 180.039062 261.648438 180.351562 261.179688 C 180.664062 260.714844 181.019531 260.28125 181.417969 259.882812 C 181.816406 259.484375 182.25 259.128906 182.71875 258.816406 C 183.183594 258.5 183.679688 258.238281 184.199219 258.023438 C 184.71875 257.804688 185.253906 257.644531 185.808594 257.535156 C 186.359375 257.421875 186.917969 257.367188 187.480469 257.367188 C 188.042969 257.367188 188.597656 257.421875 189.152344 257.535156 C 189.703125 257.644531 190.238281 257.804688 190.757812 258.023438 C 191.28125 258.238281 191.773438 258.5 192.242188 258.816406 C 192.710938 259.128906 193.140625 259.484375 193.539062 259.882812 C 193.9375 260.28125 194.292969 260.714844 194.605469 261.179688 C 194.917969 261.648438 195.183594 262.144531 195.398438 262.664062 C 195.613281 263.183594 195.777344 263.722656 195.886719 264.273438 C 195.996094 264.828125 196.050781 265.382812 196.050781 265.949219 Z M 196.050781 265.949219 " fill-opacity="1" fill-rule="nonzero"/><g clip-path="url(#id1)"><path fill="#ccd1d9" d="M 367.480469 268.921875 L 367.480469 280.246094 C 367.480469 289.90625 359.988281 297.40625 350.335938 297.40625 C 346.28125 297.40625 289.59375 297.40625 224.566406 297.40625 C 200.222656 297.40625 174.730469 297.40625 150.394531 297.40625 C 85.363281 297.40625 28.679688 297.40625 24.621094 297.40625 C 14.972656 297.40625 7.480469 289.90625 7.480469 280.246094 L 7.480469 268.921875 C 7.480469 278.359375 15.195312 286.082031 24.621094 286.082031 L 350.335938 286.082031 C 359.765625 286.082031 367.480469 278.359375 367.480469 268.921875 Z M 367.480469 268.921875 " fill-opacity="1" fill-rule="nonzero"/></g><path fill="#ccd1d9" d="M 224.566406 297.40625 L 235.992188 348.878906 L 138.964844 348.878906 L 150.394531 297.40625 C 174.738281 297.40625 200.222656 297.40625 224.566406 297.40625 Z M 224.566406 297.40625 " fill-opacity="1" fill-rule="nonzero"/><g clip-path="url(#id2)"><path fill="#e6e9ed" d="M 187.480469 245.929688 L 7.480469 245.929688 L 7.480469 268.921875 C 7.480469 278.359375 15.195312 286.082031 24.621094 286.082031 L 350.335938 286.082031 C 359.765625 286.082031 367.480469 278.359375 367.480469 268.921875 L 367.480469 245.929688 Z M 187.480469 274.527344 C 182.738281 274.527344 178.90625 270.695312 178.90625 265.949219 C 178.90625 261.199219 182.738281 257.367188 187.480469 257.367188 C 192.222656 257.367188 196.050781 261.199219 196.050781 265.949219 C 196.050781 270.695312 192.222656 274.527344 187.480469 274.527344 Z M 187.480469 274.527344 " fill-opacity="1" fill-rule="nonzero"/></g><g clip-path="url(#id3)"><path fill="#656d78" d="M 367.480469 40.140625 L 367.480469 245.929688 L 7.480469 245.929688 L 7.480469 40.140625 C 7.480469 30.710938 15.195312 22.984375 24.621094 22.984375 L 350.335938 22.984375 C 359.765625 22.984375 367.480469 30.707031 367.480469 40.140625 Z M 350.335938 228.769531 L 350.335938 40.027344 L 24.621094 40.027344 L 24.621094 228.769531 Z M 350.335938 228.769531 " fill-opacity="1" fill-rule="nonzero"/></g><path fill="#aab2bd" d="M 225.839844 303.125 L 224.566406 297.40625 C 200.222656 297.40625 174.730469 297.40625 150.394531 297.40625 L 149.121094 303.125 Z M 225.839844 303.125 " fill-opacity="1" fill-rule="nonzero"/><path fill="#e6e9ed" d="M 244.621094 351.707031 L 130.335938 351.707031 C 128.757812 351.707031 127.480469 350.425781 127.480469 348.847656 C 127.480469 347.269531 128.757812 345.988281 130.335938 345.988281 L 244.621094 345.988281 C 246.199219 345.988281 247.480469 347.269531 247.480469 348.847656 C 247.480469 350.425781 246.199219 351.707031 244.621094 351.707031 Z M 244.621094 351.707031 " fill-opacity="1" fill-rule="nonzero"/><path fill="#ffce54" d="M 76.050781 60.101562 L 53.195312 60.101562 C 51.617188 60.101562 50.335938 58.820312 50.335938 57.242188 C 50.335938 55.664062 51.617188 54.382812 53.195312 54.382812 L 76.050781 54.382812 C 77.628906 54.382812 78.90625 55.664062 78.90625 57.242188 C 78.90625 58.820312 77.628906 60.101562 76.050781 60.101562 Z M 76.050781 60.101562 " fill-opacity="1" fill-rule="nonzero"/><path fill="#ac92ec" d="M 178.90625 77.261719 L 98.90625 77.261719 C 97.332031 77.261719 96.050781 75.980469 96.050781 74.402344 C 96.050781 72.824219 97.332031 71.542969 98.90625 71.542969 L 178.90625 71.542969 C 180.484375 71.542969 181.765625 72.824219 181.765625 74.402344 C 181.765625 75.980469 180.484375 77.261719 178.90625 77.261719 Z M 178.90625 77.261719 " fill-opacity="1" fill-rule="nonzero"/><path fill="#ac92ec" d="M 87.480469 77.261719 L 58.90625 77.261719 C 57.332031 77.261719 56.050781 75.980469 56.050781 74.402344 C 56.050781 72.824219 57.332031 71.542969 58.90625 71.542969 L 87.480469 71.542969 C 89.054688 71.542969 90.335938 72.824219 90.335938 74.402344 C 90.335938 75.980469 89.054688 77.261719 87.480469 77.261719 Z M 87.480469 77.261719 " fill-opacity="1" fill-rule="nonzero"/><path fill="#5d9cec" d="M 247.480469 94.421875 L 173.195312 94.421875 C 171.617188 94.421875 170.335938 93.140625 170.335938 91.5625 C 170.335938 89.980469 171.617188 88.699219 173.195312 88.699219 L 247.480469 88.699219 C 249.054688 88.699219 250.335938 89.980469 250.335938 91.5625 C 250.335938 93.140625 249.054688 94.421875 247.480469 94.421875 Z M 247.480469 94.421875 " fill-opacity="1" fill-rule="nonzero"/><path fill="#5d9cec" d="M 281.765625 94.421875 L 258.90625 94.421875 C 257.332031 94.421875 256.050781 93.140625 256.050781 91.5625 C 256.050781 89.980469 257.332031 88.699219 258.90625 88.699219 L 281.765625 88.699219 C 283.34375 88.699219 284.621094 89.980469 284.621094 91.5625 C 284.621094 93.140625 283.34375 94.421875 281.765625 94.421875 Z M 281.765625 94.421875 " fill-opacity="1" fill-rule="nonzero"/><path fill="#5d9cec" d="M 161.765625 94.421875 L 64.621094 94.421875 C 63.046875 94.421875 61.765625 93.140625 61.765625 91.5625 C 61.765625 89.980469 63.046875 88.699219 64.621094 88.699219 L 161.765625 88.699219 C 163.34375 88.699219 164.621094 89.980469 164.621094 91.5625 C 164.621094 93.140625 163.34375 94.421875 161.765625 94.421875 Z M 161.765625 94.421875 " fill-opacity="1" fill-rule="nonzero"/><path fill="#ed5565" d="M 93.203125 128.738281 L 76.0625 128.738281 C 74.484375 128.738281 73.203125 127.457031 73.203125 125.878906 C 73.203125 124.300781 74.484375 123.019531 76.0625 123.019531 L 93.203125 123.019531 C 94.78125 123.019531 96.0625 124.300781 96.0625 125.878906 C 96.0625 127.457031 94.78125 128.738281 93.203125 128.738281 Z M 93.203125 128.738281 " fill-opacity="1" fill-rule="nonzero"/><path fill="#ed5565" d="M 189.457031 128.738281 L 104.632812 128.738281 C 103.054688 128.738281 101.777344 127.457031 101.777344 125.878906 C 101.777344 124.300781 103.054688 123.019531 104.632812 123.019531 L 189.457031 123.019531 C 191.035156 123.019531 192.3125 124.300781 192.3125 125.878906 C 192.3125 127.457031 191.035156 128.738281 189.457031 128.738281 Z M 189.457031 128.738281 " fill-opacity="1" fill-rule="nonzero"/><path fill="#a0d468" d="M 201.765625 111.578125 L 70.335938 111.578125 C 68.757812 111.578125 67.480469 110.296875 67.480469 108.71875 C 67.480469 107.140625 68.757812 105.859375 70.335938 105.859375 L 201.765625 105.859375 C 203.34375 105.859375 204.621094 107.140625 204.621094 108.71875 C 204.621094 110.296875 203.34375 111.578125 201.765625 111.578125 Z M 201.765625 111.578125 " fill-opacity="1" fill-rule="nonzero"/><path fill="#4fc1e9" d="M 207.492188 145.894531 L 156.0625 145.894531 C 154.484375 145.894531 153.203125 144.613281 153.203125 143.035156 C 153.203125 141.457031 154.484375 140.175781 156.0625 140.175781 L 207.492188 140.175781 C 209.066406 140.175781 210.347656 141.457031 210.347656 143.035156 C 210.347656 144.613281 209.066406 145.894531 207.492188 145.894531 Z M 207.492188 145.894531 " fill-opacity="1" fill-rule="nonzero"/><path fill="#a0d468" d="M 167.492188 163.054688 L 70.347656 163.054688 C 68.769531 163.054688 67.492188 161.773438 67.492188 160.195312 C 67.492188 158.617188 68.769531 157.335938 70.347656 157.335938 L 167.492188 157.335938 C 169.066406 157.335938 170.347656 158.617188 170.347656 160.195312 C 170.347656 161.773438 169.066406 163.054688 167.492188 163.054688 Z M 167.492188 163.054688 " fill-opacity="1" fill-rule="nonzero"/><path fill="#ac92ec" d="M 104.621094 197.371094 L 58.90625 197.371094 C 57.332031 197.371094 56.050781 196.089844 56.050781 194.511719 C 56.050781 192.933594 57.332031 191.652344 58.90625 191.652344 L 104.621094 191.652344 C 106.199219 191.652344 107.480469 192.933594 107.480469 194.511719 C 107.480469 196.089844 106.199219 197.371094 104.621094 197.371094 Z M 104.621094 197.371094 " fill-opacity="1" fill-rule="nonzero"/><path fill="#5d9cec" d="M 218.90625 180.210938 L 138.90625 180.210938 C 137.332031 180.210938 136.050781 178.929688 136.050781 177.351562 C 136.050781 175.773438 137.332031 174.492188 138.90625 174.492188 L 218.90625 174.492188 C 220.484375 174.492188 221.765625 175.773438 221.765625 177.351562 C 221.765625 178.929688 220.484375 180.210938 218.90625 180.210938 Z M 218.90625 180.210938 " fill-opacity="1" fill-rule="nonzero"/><path fill="#5d9cec" d="M 236.050781 180.210938 L 230.335938 180.210938 C 228.757812 180.210938 227.480469 178.929688 227.480469 177.351562 C 227.480469 175.773438 228.757812 174.492188 230.335938 174.492188 L 236.050781 174.492188 C 237.628906 174.492188 238.90625 175.773438 238.90625 177.351562 C 238.90625 178.929688 237.628906 180.210938 236.050781 180.210938 Z M 236.050781 180.210938 " fill-opacity="1" fill-rule="nonzero"/><path fill="#5d9cec" d="M 127.480469 180.210938 L 64.621094 180.210938 C 63.046875 180.210938 61.765625 178.929688 61.765625 177.351562 C 61.765625 175.773438 63.046875 174.492188 64.621094 174.492188 L 127.480469 174.492188 C 129.054688 174.492188 130.335938 175.773438 130.335938 177.351562 C 130.335938 178.929688 129.054688 180.210938 127.480469 180.210938 Z M 127.480469 180.210938 " fill-opacity="1" fill-rule="nonzero"/><path fill="#ffce54" d="M 76.050781 214.53125 L 53.195312 214.53125 C 51.617188 214.53125 50.335938 213.25 50.335938 211.671875 C 50.335938 210.089844 51.617188 208.808594 53.195312 208.808594 L 76.050781 208.808594 C 77.628906 208.808594 78.90625 210.089844 78.90625 211.671875 C 78.90625 213.25 77.628906 214.53125 76.050781 214.53125 Z M 76.050781 214.53125 " fill-opacity="1" fill-rule="nonzero"/><path fill="#a0d468" d="M 213.203125 163.054688 L 178.917969 163.054688 C 177.34375 163.054688 176.0625 161.773438 176.0625 160.195312 C 176.0625 158.617188 177.34375 157.335938 178.917969 157.335938 L 213.203125 157.335938 C 214.78125 157.335938 216.0625 158.617188 216.0625 160.195312 C 216.0625 161.773438 214.78125 163.054688 213.203125 163.054688 Z M 213.203125 163.054688 " fill-opacity="1" fill-rule="nonzero"/><path fill="#4fc1e9" d="M 258.917969 145.894531 L 218.917969 145.894531 C 217.34375 145.894531 216.0625 144.613281 216.0625 143.035156 C 216.0625 141.457031 217.34375 140.175781 218.917969 140.175781 L 258.917969 140.175781 C 260.496094 140.175781 261.777344 141.457031 261.777344 143.035156 C 261.777344 144.613281 260.496094 145.894531 258.917969 145.894531 Z M 258.917969 145.894531 " fill-opacity="1" fill-rule="nonzero"/><path fill="#4fc1e9" d="M 144.632812 145.894531 L 76.0625 145.894531 C 74.484375 145.894531 73.203125 144.613281 73.203125 143.035156 C 73.203125 141.457031 74.484375 140.175781 76.0625 140.175781 L 144.632812 140.175781 C 146.210938 140.175781 147.492188 141.457031 147.492188 143.035156 C 147.492188 144.613281 146.210938 145.894531 144.632812 145.894531 Z M 144.632812 145.894531 " fill-opacity="1" fill-rule="nonzero"/><path fill="#ccd1d9" d="M 27.480469 143.007812 C 27.480469 141.429688 26.199219 140.148438 24.621094 140.148438 L 24.621094 145.867188 C 26.199219 145.867188 27.480469 144.585938 27.480469 143.007812 Z M 27.480469 143.007812 " fill-opacity="1" fill-rule="nonzero"/><path fill="#ccd1d9" d="M 27.480469 160.164062 C 27.480469 158.585938 26.199219 157.304688 24.621094 157.304688 L 24.621094 163.027344 C 26.199219 163.027344 27.480469 161.746094 27.480469 160.164062 Z M 27.480469 160.164062 " fill-opacity="1" fill-rule="nonzero"/><path fill="#ccd1d9" d="M 27.480469 177.324219 C 27.480469 175.746094 26.199219 174.464844 24.621094 174.464844 L 24.621094 180.183594 C 26.199219 180.183594 27.480469 178.902344 27.480469 177.324219 Z M 27.480469 177.324219 " fill-opacity="1" fill-rule="nonzero"/><path fill="#ccd1d9" d="M 27.480469 194.484375 C 27.480469 192.90625 26.199219 191.625 24.621094 191.625 L 24.621094 197.34375 C 26.199219 197.34375 27.480469 196.0625 27.480469 194.484375 Z M 27.480469 194.484375 " fill-opacity="1" fill-rule="nonzero"/><path fill="#ccd1d9" d="M 27.480469 211.640625 C 27.480469 210.0625 26.199219 208.78125 24.621094 208.78125 L 24.621094 214.5 C 26.199219 214.5 27.480469 213.21875 27.480469 211.640625 Z M 27.480469 211.640625 " fill-opacity="1" fill-rule="nonzero"/><path fill="#ccd1d9" d="M 27.480469 125.847656 C 27.480469 124.269531 26.199219 122.988281 24.621094 122.988281 L 24.621094 128.707031 C 26.199219 128.707031 27.480469 127.425781 27.480469 125.847656 Z M 27.480469 125.847656 " fill-opacity="1" fill-rule="nonzero"/><path fill="#ccd1d9" d="M 27.480469 108.691406 C 27.480469 107.113281 26.199219 105.832031 24.621094 105.832031 L 24.621094 111.550781 C 26.199219 111.550781 27.480469 110.269531 27.480469 108.691406 Z M 27.480469 108.691406 " fill-opacity="1" fill-rule="nonzero"/><path fill="#ccd1d9" d="M 27.480469 91.53125 C 27.480469 89.953125 26.199219 88.671875 24.621094 88.671875 L 24.621094 94.390625 C 26.199219 94.390625 27.480469 93.109375 27.480469 91.53125 Z M 27.480469 91.53125 " fill-opacity="1" fill-rule="nonzero"/><path fill="#ccd1d9" d="M 27.480469 74.375 C 27.480469 72.796875 26.199219 71.515625 24.621094 71.515625 L 24.621094 77.234375 C 26.199219 77.234375 27.480469 75.953125 27.480469 74.375 Z M 27.480469 74.375 " fill-opacity="1" fill-rule="nonzero"/><path fill="#ccd1d9" d="M 27.480469 57.214844 C 27.480469 55.636719 26.199219 54.355469 24.621094 54.355469 L 24.621094 60.074219 C 26.199219 60.074219 27.480469 58.792969 27.480469 57.214844 Z M 27.480469 57.214844 " fill-opacity="1" fill-rule="nonzero"/></svg>